<svg width="22" height="22" viewBox="0 0 22 22" fill="none" xmlns="http://www.w3.org/2000/svg">
<path d="M11.0002 0.333344C12.4147 0.333344 13.7712 0.895246 14.7714 1.89544C15.7716 2.89563 16.3335 4.25219 16.3335 5.66668C16.3335 7.08117 15.7716 8.43772 14.7714 9.43791C13.7712 10.4381 12.4147 11 11.0002 11C9.58568 11 8.22912 10.4381 7.22893 9.43791C6.22873 8.43772 5.66683 7.08117 5.66683 5.66668C5.66683 4.25219 6.22873 2.89563 7.22893 1.89544C8.22912 0.895246 9.58568 0.333344 11.0002 0.333344ZM11.0002 13.6667C16.8935 13.6667 21.6668 16.0533 21.6668 19V21.6667H0.333496V19C0.333496 16.0533 5.10683 13.6667 11.0002 13.6667Z" fill="#141414"/>
</svg>
