<svg width="24" height="22" viewBox="0 0 24 22" fill="none" xmlns="http://www.w3.org/2000/svg">
<path d="M20.4147 7.86741L20.1463 8.48488C20.1044 8.58543 20.0336 8.67132 19.943 8.73173C19.8523 8.79214 19.7458 8.82438 19.6369 8.82438C19.5279 8.82438 19.4214 8.79214 19.3308 8.73173C19.2401 8.67132 19.1694 8.58543 19.1274 8.48488L18.859 7.86741C18.3872 6.77508 17.5231 5.89927 16.4372 5.4128L15.6091 5.04297C15.5087 4.99676 15.4236 4.92272 15.3639 4.82962C15.3043 4.73651 15.2726 4.62826 15.2726 4.51769C15.2726 4.40711 15.3043 4.29886 15.3639 4.20575C15.4236 4.11265 15.5087 4.03861 15.6091 3.9924L16.3913 3.64439C17.5045 3.14406 18.3834 2.23586 18.847 1.10687L19.123 0.440306C19.1636 0.337053 19.2343 0.248408 19.3259 0.185927C19.4176 0.123446 19.526 0.0900269 19.6369 0.0900269C19.7478 0.0900269 19.8562 0.123446 19.9478 0.185927C20.0395 0.248408 20.1102 0.337053 20.1507 0.440306L20.4267 1.10578C20.8898 2.23498 21.7683 3.14358 22.8813 3.64439L23.6646 3.99349C23.7648 4.03983 23.8496 4.11387 23.909 4.20685C23.9684 4.29983 24 4.40788 24 4.51823C24 4.62858 23.9684 4.73663 23.909 4.82961C23.8496 4.9226 23.7648 4.99663 23.6646 5.04297L22.8355 5.41171C21.7498 5.89867 20.8861 6.77486 20.4147 7.86741ZM19.6369 11.0006C20.38 11.0013 21.1178 10.8755 21.8188 10.6286V20.8267C21.8168 21.1132 21.7021 21.3874 21.4996 21.5901C21.2971 21.7928 21.023 21.9077 20.7365 21.91H1.08221C0.79509 21.9097 0.519828 21.7954 0.316906 21.5923C0.113983 21.3892 -1.45591e-07 21.1138 0 20.8267V3.35638C0.00199646 3.06988 0.116622 2.79566 0.319113 2.59296C0.521605 2.39027 0.795708 2.27537 1.08221 2.27308H13.4644C13.1153 3.26047 13.0082 4.3172 13.1521 5.35454C13.296 6.39188 13.6868 7.37954 14.2915 8.23459C14.8962 9.08963 15.6973 9.78709 16.6274 10.2684C17.5576 10.7497 18.5896 11.0008 19.6369 11.0006ZM9.40606 8.18051C9.34041 8.1367 9.2641 8.11152 9.18526 8.10766C9.10643 8.10379 9.02802 8.12137 8.95839 8.15854C8.88876 8.1957 8.83052 8.25106 8.78986 8.31871C8.7492 8.38636 8.72765 8.46377 8.7275 8.5427V15.6403C8.72765 15.7193 8.7492 15.7967 8.78986 15.8643C8.83052 15.932 8.88876 15.9873 8.95839 16.0245C9.02802 16.0617 9.10643 16.0793 9.18526 16.0754C9.2641 16.0715 9.34041 16.0463 9.40606 16.0025L14.7287 12.4548C14.7886 12.415 14.8377 12.361 14.8716 12.2976C14.9056 12.2342 14.9234 12.1634 14.9234 12.0915C14.9234 12.0196 14.9056 11.9488 14.8716 11.8855C14.8377 11.8221 14.7886 11.7681 14.7287 11.7282L9.40606 8.18051Z" fill="url(#paint0_linear_3_679)"/>
<defs>
<linearGradient id="paint0_linear_3_679" x1="0.5" y1="3" x2="21" y2="21.5" gradientUnits="userSpaceOnUse">
<stop offset="0.155" stop-color="#FEDA77"/>
<stop offset="0.34" stop-color="#5557D1"/>
<stop offset="0.52" stop-color="#8134AF"/>
<stop offset="0.755" stop-color="#DD2A7B"/>
<stop offset="1" stop-color="#F58529"/>
</linearGradient>
</defs>
</svg>
