<svg width="97" height="96" viewBox="0 0 97 96" fill="none" xmlns="http://www.w3.org/2000/svg">
<g clip-path="url(#clip0_3_6299)">
<path d="M48.5 60C55.1274 60 60.5 54.6274 60.5 48C60.5 41.3726 55.1274 36 48.5 36C41.8726 36 36.5 41.3726 36.5 48C36.5 54.6274 41.8726 60 48.5 60Z" fill="#5E5E5E"/>
<path d="M80.5 16H67.82L62.86 10.6C61.38 8.96 59.22 8 56.98 8H40.02C37.78 8 35.62 8.96 34.1 10.6L29.18 16H16.5C12.1 16 8.5 19.6 8.5 24V72C8.5 76.4 12.1 80 16.5 80H80.5C84.9 80 88.5 76.4 88.5 72V24C88.5 19.6 84.9 16 80.5 16ZM48.5 68C37.46 68 28.5 59.04 28.5 48C28.5 36.96 37.46 28 48.5 28C59.54 28 68.5 36.96 68.5 48C68.5 59.04 59.54 68 48.5 68Z" fill="#5E5E5E"/>
</g>
<defs>
<clipPath id="clip0_3_6299">
<rect width="96" height="96" fill="white" transform="translate(0.5)"/>
</clipPath>
</defs>
</svg>
