<svg width="68" height="69" viewBox="0 0 68 69" fill="none" xmlns="http://www.w3.org/2000/svg">
<rect y="0.149902" width="68" height="68" rx="34" fill="#FF084A" fill-opacity="0.2"/>
<path d="M49.4286 36.7213H36.5714V49.5785C36.5714 50.9928 35.4143 52.1499 34 52.1499C32.5857 52.1499 31.4286 50.9928 31.4286 49.5785V36.7213H18.5714C17.1571 36.7213 16 35.5642 16 34.1499C16 32.7356 17.1571 31.5785 18.5714 31.5785H31.4286V18.7213C31.4286 17.307 32.5857 16.1499 34 16.1499C35.4143 16.1499 36.5714 17.307 36.5714 18.7213V31.5785H49.4286C50.8429 31.5785 52 32.7356 52 34.1499C52 35.5642 50.8429 36.7213 49.4286 36.7213Z" fill="#FF084A"/>
</svg>
