<svg xmlns="http://www.w3.org/2000/svg" width="14" height="14" viewBox="0 0 14 14" fill="none">
  <path d="M7.4251 7.975L2.5251 12.875C2.34176 13.0583 2.10843 13.15 1.8251 13.15C1.54176 13.15 1.30843 13.0583 1.1251 12.875C0.941764 12.6917 0.850098 12.4583 0.850098 12.175C0.850098 11.8917 0.941764 11.6583 1.1251 11.475L6.0251 6.575L1.1251 1.675C0.941764 1.49167 0.850098 1.25833 0.850098 0.975C0.850098 0.691667 0.941764 0.458333 1.1251 0.275C1.30843 0.0916663 1.54176 0 1.8251 0C2.10843 0 2.34176 0.0916663 2.5251 0.275L7.4251 5.175L12.3251 0.275C12.5084 0.0916663 12.7418 0 13.0251 0C13.3084 0 13.5418 0.0916663 13.7251 0.275C13.9084 0.458333 14.0001 0.691667 14.0001 0.975C14.0001 1.25833 13.9084 1.49167 13.7251 1.675L8.8251 6.575L13.7251 11.475C13.9084 11.6583 14.0001 11.8917 14.0001 12.175C14.0001 12.4583 13.9084 12.6917 13.7251 12.875C13.5418 13.0583 13.3084 13.15 13.0251 13.15C12.7418 13.15 12.5084 13.0583 12.3251 12.875L7.4251 7.975Z" fill="#9D9D9D"/>
</svg>