<svg width="26" height="32" viewBox="0 0 26 32" fill="none" xmlns="http://www.w3.org/2000/svg">
<path fill-rule="evenodd" clip-rule="evenodd" d="M8.31201 30.0625C8.31201 29.6481 8.47663 29.2507 8.76966 28.9576C9.06268 28.6646 9.46011 28.5 9.87451 28.5H16.1245C16.5389 28.5 16.9363 28.6646 17.2294 28.9576C17.5224 29.2507 17.687 29.6481 17.687 30.0625C17.687 30.4769 17.5224 30.8743 17.2294 31.1673C16.9363 31.4604 16.5389 31.625 16.1245 31.625H9.87451C9.46011 31.625 9.06268 31.4604 8.76966 31.1673C8.47663 30.8743 8.31201 30.4769 8.31201 30.0625ZM8.31201 21.3516C8.72641 21.3516 9.12384 21.5162 9.41686 21.8092C9.70989 22.1022 9.87451 22.4997 9.87451 22.9141V23.5359C9.87451 24.1203 10.3479 24.5937 10.9323 24.5937H15.0667C15.3472 24.5937 15.6163 24.4823 15.8147 24.2839C16.0131 24.0855 16.1245 23.8165 16.1245 23.5359V23.0312C16.1245 22.6168 16.2891 22.2194 16.5821 21.9264C16.8752 21.6334 17.2726 21.4687 17.687 21.4687C18.1014 21.4687 18.4988 21.6334 18.7918 21.9264C19.0849 22.2194 19.2495 22.6168 19.2495 23.0312V23.5359C19.2497 24.0853 19.1416 24.6293 18.9315 25.1369C18.7214 25.6444 18.4133 26.1056 18.0248 26.4941C17.6364 26.8825 17.1752 27.1906 16.6676 27.4008C16.16 27.6109 15.616 27.7189 15.0667 27.7187H10.9323C10.383 27.7189 9.83896 27.6109 9.33138 27.4008C8.82381 27.1906 8.36262 26.8825 7.97417 26.4941C7.58572 26.1056 7.27762 25.6444 7.06749 25.1369C6.85736 24.6293 6.74931 24.0853 6.74951 23.5359V22.9141C6.74951 22.4997 6.91413 22.1022 7.20716 21.8092C7.50018 21.5162 7.89761 21.3516 8.31201 21.3516Z" fill="black"/>
<path d="M16.4808 23.5721C16.6948 24.2284 17.4026 24.594 18.0354 24.3159C20.6661 23.1581 22.8174 21.1291 24.127 18.5706C25.4366 16.0122 25.8245 13.0805 25.2254 10.2695C24.6263 7.45849 23.0769 4.93979 20.8379 3.1376C18.599 1.3354 15.8074 0.35983 12.9333 0.375178C10.0591 0.390526 7.27811 1.39586 5.05854 3.22186C2.83897 5.04786 1.31647 7.58297 0.747443 10.4002C0.178417 13.2175 0.597635 16.1448 1.93449 18.6891C3.27135 21.2334 5.44418 23.2393 8.08703 24.369C8.7214 24.6409 9.42609 24.269 9.6339 23.6096L9.76984 23.1752C9.97608 22.5174 9.60421 21.8221 8.97921 21.5315C7.0116 20.6177 5.41398 19.0608 4.44959 17.1175C3.48521 15.1741 3.21159 12.9602 3.67383 10.8406C4.13606 8.72092 5.30657 6.82195 6.9925 5.45657C8.67842 4.09119 10.7792 3.34084 12.9486 3.32918C15.1181 3.31751 17.2268 4.04521 18.9273 5.39238C20.6278 6.73955 21.8186 8.62582 22.3037 10.7404C22.7887 12.8549 22.5389 15.0716 21.5955 17.0252C20.652 18.9788 19.0712 20.5528 17.1136 21.4877C16.4901 21.7846 16.1261 22.4831 16.3401 23.1409L16.4808 23.5721Z" fill="black"/>
<path fill-rule="evenodd" clip-rule="evenodd" d="M9.96205 11.4317C10.0298 11.238 10.135 11.0595 10.2716 10.9065C10.4083 10.7534 10.5738 10.6288 10.7587 10.5397C10.9435 10.4506 11.1441 10.3988 11.349 10.3872C11.5538 10.3757 11.759 10.4046 11.9527 10.4723L13.3683 10.9676L13.437 10.991C13.7808 11.1098 14.1839 11.2504 14.5027 11.4176C14.8683 11.6098 15.4683 12.0114 15.6699 12.816C15.8699 13.6207 15.5292 14.2567 15.298 14.5973C15.0949 14.8942 14.8042 15.2082 14.5589 15.4754L14.5089 15.5285L14.348 15.7035L15.0433 15.9301C15.427 16.066 15.7426 16.3462 15.9228 16.7112C16.103 17.0762 16.1336 17.4972 16.0082 17.8844C15.8828 18.2717 15.6112 18.5947 15.2512 18.7847C14.8912 18.9748 14.4713 19.0169 14.0808 18.902L12.9199 18.527L12.8495 18.5035C12.4753 18.3946 12.1097 18.2577 11.7558 18.0942C11.3839 17.9098 10.7636 17.516 10.5495 16.6989C10.3355 15.8832 10.6839 15.2364 10.9167 14.8926C11.123 14.591 11.4167 14.2723 11.6699 13.9989L11.7199 13.9442L11.8902 13.7598L10.9214 13.4223C10.7277 13.3546 10.5493 13.2494 10.3962 13.1127C10.2432 12.976 10.1185 12.8105 10.0295 12.6257C9.94037 12.4408 9.88856 12.2403 9.877 12.0354C9.86543 11.8305 9.89433 11.6254 9.96205 11.4317Z" fill="black"/>
</svg>
