<svg width="96" height="96" viewBox="0 0 96 96" fill="none" xmlns="http://www.w3.org/2000/svg">
<g clip-path="url(#clip0_64_892)">
<path d="M48 60C54.6274 60 60 54.6274 60 48C60 41.3726 54.6274 36 48 36C41.3726 36 36 41.3726 36 48C36 54.6274 41.3726 60 48 60Z" fill="#5E5E5E"/>
<path d="M80 16H67.32L62.36 10.6C60.88 8.96 58.72 8 56.48 8H39.52C37.28 8 35.12 8.96 33.6 10.6L28.68 16H16C11.6 16 8 19.6 8 24V72C8 76.4 11.6 80 16 80H80C84.4 80 88 76.4 88 72V24C88 19.6 84.4 16 80 16ZM48 68C36.96 68 28 59.04 28 48C28 36.96 36.96 28 48 28C59.04 28 68 36.96 68 48C68 59.04 59.04 68 48 68Z" fill="#5E5E5E"/>
</g>
<defs>
<clipPath id="clip0_64_892">
<rect width="96" height="96" fill="white"/>
</clipPath>
</defs>
</svg>
