<svg width="24" height="24" viewBox="0 0 24 24" fill="none" xmlns="http://www.w3.org/2000/svg">
<circle cx="12" cy="12" r="10" fill="black"/>
<path fill-rule="evenodd" clip-rule="evenodd" d="M8.70709 14.3641C8.31671 14.7545 8.31671 15.3878 8.70709 15.7781C9.09772 16.1688 9.73077 16.1688 10.1214 15.7781L12.2427 13.6568L14.3641 15.7781C14.7547 16.1688 15.3878 16.1688 15.7784 15.7781C16.1688 15.3878 16.1688 14.7545 15.7784 14.3641L13.6568 12.2427L15.7781 10.1214C16.1688 9.73077 16.1688 9.09772 15.7781 8.70709C15.3878 8.31671 14.7545 8.31671 14.3641 8.70709L12.2427 10.8284L10.1214 8.70709C9.73102 8.31671 9.09772 8.31671 8.70734 8.70709C8.31671 9.09772 8.31671 9.73077 8.70734 10.1214L10.8287 12.2427L8.70709 14.3641Z" fill="white"/>
</svg>
