<svg width="240" height="240" viewBox="0 0 240 240" fill="none" xmlns="http://www.w3.org/2000/svg">
<rect x="1" y="1" width="238" height="238" rx="119" fill="white"/>
<rect x="1" y="1" width="238" height="238" rx="119" stroke="#D9D9D9" stroke-width="2"/>
<g clip-path="url(#clip0_745_905)">
<path d="M120 120C126.627 120 132 114.627 132 108C132 101.373 126.627 96 120 96C113.373 96 108 101.373 108 108C108 114.627 113.373 120 120 120Z" fill="#FF084A"/>
<path d="M152 76H139.32L134.36 70.6C132.88 68.96 130.72 68 128.48 68H111.52C109.28 68 107.12 68.96 105.6 70.6L100.68 76H88C83.6 76 80 79.6 80 84V132C80 136.4 83.6 140 88 140H152C156.4 140 160 136.4 160 132V84C160 79.6 156.4 76 152 76ZM120 128C108.96 128 100 119.04 100 108C100 96.96 108.96 88 120 88C131.04 88 140 96.96 140 108C140 119.04 131.04 128 120 128Z" fill="#FF084A"/>
</g>
<path d="M63.6395 163.32C63.6199 166.465 65.202 169.668 67.9363 170.977L66.6082 172.715C64.6941 171.748 63.3172 169.883 62.5652 167.637C61.7938 170.039 60.3484 172.031 58.327 173.047L56.9988 171.309C59.8309 169.961 61.452 166.582 61.4715 163.32V160.508H63.6395V163.32ZM71.159 159.082V165.996H73.8738V167.852H71.159V176.738H68.991V159.082H71.159ZM80.5152 162.676C80.5152 164.863 82.0191 167.012 84.8316 167.891L83.7184 169.59C81.7164 168.936 80.2613 167.617 79.4605 165.938C78.6598 167.764 77.1656 169.219 75.066 169.941L73.9527 168.223C76.7848 167.285 78.3082 165 78.3277 162.676V162.168H74.5191V160.43H84.2262V162.168H80.5152V162.676ZM88.523 159.102V171.914H86.3355V159.102H88.523ZM89.0113 174.629V176.387H76.8434V170.742H79.0309V174.629H89.0113ZM96.6684 160.195L92.1176 177.129H89.9301L94.5004 160.195H96.6684ZM112.782 167.539V169.277H96.6691V167.539H103.661V165.859H98.6418V159.883H110.829V161.582H100.81V164.141H110.927V165.859H105.79V167.539H112.782ZM104.696 170.293C108.505 170.293 110.79 171.445 110.81 173.516C110.79 175.566 108.505 176.738 104.696 176.738C100.849 176.738 98.5441 175.566 98.5441 173.516C98.5441 171.445 100.849 170.293 104.696 170.293ZM104.696 171.953C102.118 171.953 100.732 172.5 100.751 173.516C100.732 174.531 102.118 175.059 104.696 175.059C107.216 175.059 108.622 174.531 108.642 173.516C108.622 172.5 107.216 171.953 104.696 171.953ZM118.057 160.078C119.482 160.078 120.713 160.605 121.553 161.484H125.771V159.082H127.939V169.473H125.771V167.227H121.553C120.713 168.105 119.473 168.623 118.057 168.613C115.4 168.633 113.389 166.836 113.389 164.355C113.389 161.855 115.4 160.078 118.057 160.078ZM118.057 161.934C116.533 161.934 115.459 162.871 115.459 164.355C115.459 165.801 116.533 166.777 118.057 166.777C119.521 166.777 120.596 165.801 120.615 164.355C120.596 162.871 119.521 161.934 118.057 161.934ZM121.963 169.844C125.674 169.844 127.998 171.113 127.998 173.281C127.998 175.449 125.674 176.719 121.963 176.719C118.271 176.719 115.947 175.449 115.967 173.281C115.947 171.113 118.271 169.844 121.963 169.844ZM121.963 171.504C119.502 171.504 118.076 172.129 118.096 173.281C118.076 174.395 119.502 175.02 121.963 175.02C124.463 175.02 125.869 174.395 125.869 173.281C125.869 172.129 124.463 171.504 121.963 171.504ZM122.529 163.223C122.627 163.584 122.686 163.955 122.686 164.355C122.686 164.746 122.627 165.117 122.549 165.469H125.771V163.223H122.529ZM135.889 161.895C135.889 164.121 137.335 166.211 140.05 167.07L138.878 168.77C136.973 168.125 135.606 166.836 134.854 165.195C134.073 167.07 132.647 168.545 130.616 169.258L129.444 167.559C132.296 166.562 133.702 164.219 133.721 161.699V160.02H135.889V161.895ZM143.565 159.082V163.379H146.026V165.176H143.565V169.648H141.397V159.082H143.565ZM137.823 170.039C141.475 170.02 143.721 171.27 143.741 173.359C143.721 175.488 141.475 176.719 137.823 176.719C134.132 176.719 131.846 175.488 131.846 173.359C131.846 171.27 134.132 170.02 137.823 170.039ZM137.823 171.738C135.401 171.738 134.014 172.324 134.014 173.359C134.014 174.453 135.401 175 137.823 175C140.245 175 141.593 174.453 141.593 173.359C141.593 172.324 140.245 171.738 137.823 171.738ZM166.164 169.688V171.465H159.172V176.758H157.024V171.465H150.071V169.688H166.164ZM164.661 161.172V162.891H159.211C159.416 164.639 161.711 166.465 165.246 166.895L164.446 168.613C161.526 168.242 159.26 166.953 158.118 165.254C156.955 166.973 154.67 168.242 151.731 168.613L150.95 166.895C154.475 166.465 156.789 164.668 157.004 162.891H151.555V161.172H157.024V159.102H159.172V161.172H164.661ZM180.384 159.082V165.977H183.001V167.793H180.384V176.699H178.216V159.082H180.384ZM175.716 160.918C175.716 166.113 173.568 170.664 167.689 173.555L166.458 171.875C170.755 169.736 173.079 166.729 173.529 162.715H167.415V160.918H175.716Z" fill="black"/>
<defs>
<clipPath id="clip0_745_905">
<rect width="96" height="96" fill="white" transform="translate(72 60)"/>
</clipPath>
</defs>
</svg>
