<svg xmlns="http://www.w3.org/2000/svg" width="97" height="89" viewBox="0 0 97 89" fill="none">
  <path d="M64.4871 16.8313C60.5664 12.9092 55.5704 10.2384 50.1312 9.15672C44.6921 8.07507 39.0543 8.63123 33.9314 10.7548C28.8085 12.8784 24.4306 16.474 21.3519 21.0865C18.2731 25.6991 16.6319 31.1212 16.6358 36.6669L16.6401 40.979H8.01597V36.6669C8.01372 30.8215 9.40954 25.0604 12.087 19.8643C14.7644 14.6681 18.6457 10.1877 23.4071 6.79694C28.1685 3.40615 33.6719 1.20333 39.4578 0.372307C45.2438 -0.45872 51.1447 0.106152 56.6679 2.01978C62.1912 3.93341 67.1766 7.1403 71.2083 11.3728C75.2399 15.6053 78.2008 20.7407 79.8438 26.3504C81.4868 31.9601 81.7643 37.8815 80.6531 43.6202C79.5419 49.359 77.0743 54.7488 73.4562 59.3398L96.5 82.3879L90.4027 88.4852L67.3589 65.4371C60.8955 70.5395 52.899 73.3108 44.6644 73.3024H40.3523V64.6782H44.6644C50.2077 64.6779 55.6264 63.0338 60.2354 59.954C64.8443 56.8741 68.4366 52.4968 70.5578 47.3755C72.6791 42.2541 73.2342 36.6188 72.1528 31.182C71.0715 25.7452 68.4023 20.7511 64.4827 16.8313M6.59729 48.538L18.7919 60.7369L30.9908 48.538L37.0881 54.6397L24.8935 66.8342L37.0881 79.0288L30.9908 85.1304L18.7919 72.9315L6.59729 85.1304L0.5 79.0288L12.6946 66.8342L0.5 54.6397L6.59729 48.538Z" fill="#FF084A"/>
</svg>