<svg xmlns="http://www.w3.org/2000/svg" width="24" height="24" viewBox="0 0 24 24" fill="none">
  <path d="M12.5205 0.571725C12.634 0.370768 12.8066 0.209584 13.0148 0.110034C13.223 0.0104832 13.4568 -0.0226159 13.6845 0.0152253L14.0415 0.0752254C14.7187 0.188064 15.3645 0.442683 15.9365 0.822408C16.5085 1.20213 16.9939 1.6984 17.3608 2.27871C17.7277 2.85903 17.9679 3.5103 18.0656 4.18988C18.1634 4.86946 18.1165 5.56203 17.928 6.22222L17.241 8.62523H18.2385C18.9963 8.62521 19.7436 8.80184 20.4211 9.14109C21.0987 9.48034 21.6879 9.97287 22.1418 10.5796C22.5958 11.1863 22.9021 11.8905 23.0364 12.6362C23.1707 13.382 23.1293 14.1488 22.9155 14.8757L21.213 20.6642C20.9615 21.5191 20.44 22.2696 19.7264 22.8034C19.0129 23.3371 18.1456 23.6255 17.2545 23.6252H9.879C8.70381 23.6251 7.55819 23.2568 6.603 22.5722C6.3585 22.8992 6.0411 23.1646 5.67603 23.3474C5.31096 23.5302 4.90828 23.6253 4.5 23.6252H2.625C1.92881 23.6252 1.26113 23.3487 0.768845 22.8564C0.276562 22.3641 0 21.6964 0 21.0002L0 11.2502C0 9.80122 1.176 8.62523 2.625 8.62523H7.7505C7.81675 8.62505 7.88177 8.60733 7.93894 8.57387C7.99612 8.54041 8.04341 8.4924 8.076 8.43472L12.5205 0.571725ZM7.125 20.0987L7.719 20.5937C8.325 21.0992 9.09 21.3752 9.879 21.3752H17.2545C17.6596 21.3755 18.0539 21.2446 18.3784 21.002C18.7029 20.7595 18.9401 20.4184 19.0545 20.0297L20.757 14.2412C20.8722 13.8498 20.8945 13.4368 20.8222 13.0352C20.7499 12.6336 20.585 12.2544 20.3406 11.9276C20.0961 11.6009 19.7788 11.3357 19.4139 11.153C19.049 10.9703 18.6466 10.8752 18.2385 10.8752H15.75C15.5759 10.8752 15.4042 10.8347 15.2484 10.7571C15.0925 10.6794 14.9569 10.5666 14.852 10.4276C14.7472 10.2886 14.6761 10.1272 14.6442 9.95602C14.6124 9.78485 14.6207 9.60863 14.6685 9.44123L15.765 5.60423C15.9506 4.95444 15.8784 4.25811 15.5635 3.66019C15.2486 3.06227 14.7153 2.60882 14.0745 2.39423L10.035 9.54172C9.80634 9.94633 9.47437 10.283 9.073 10.5173C8.67163 10.7516 8.21525 10.8751 7.7505 10.8752H7.125V20.0987ZM4.875 10.8752H2.625C2.52554 10.8752 2.43016 10.9147 2.35984 10.9851C2.28951 11.0554 2.25 11.1508 2.25 11.2502V21.0002C2.25 21.2072 2.418 21.3752 2.625 21.3752H4.5C4.59946 21.3752 4.69484 21.3357 4.76516 21.2654C4.83549 21.1951 4.875 21.0997 4.875 21.0002V10.8752Z" fill="#FF084A"/>
</svg>