<svg width="24" height="24" viewBox="0 0 24 24" fill="none" xmlns="http://www.w3.org/2000/svg">
<g clip-path="url(#clip0_36_882)">
<path d="M12.5205 0.946725C12.634 0.745768 12.8066 0.584584 13.0148 0.485034C13.223 0.385483 13.4568 0.352384 13.6845 0.390225L14.0415 0.450225C14.7187 0.563064 15.3645 0.817683 15.9365 1.19741C16.5085 1.57713 16.9939 2.0734 17.3608 2.65371C17.7277 3.23403 17.9679 3.8853 18.0656 4.56488C18.1634 5.24446 18.1165 5.93703 17.928 6.59722L17.241 9.00023H18.2385C18.9963 9.00021 19.7436 9.17684 20.4211 9.51609C21.0987 9.85534 21.6879 10.3479 22.1418 10.9546C22.5958 11.5613 22.9021 12.2655 23.0364 13.0112C23.1707 13.757 23.1293 14.5238 22.9155 15.2507L21.213 21.0392C20.9615 21.8941 20.44 22.6446 19.7264 23.1784C19.0129 23.7121 18.1456 24.0005 17.2545 24.0002H9.879C8.70381 24.0001 7.55819 23.6318 6.603 22.9472C6.3585 23.2742 6.0411 23.5396 5.67603 23.7224C5.31096 23.9052 4.90828 24.0003 4.5 24.0002H2.625C1.92881 24.0002 1.26113 23.7237 0.768845 23.2314C0.276562 22.7391 0 22.0714 0 21.3752L0 11.6252C0 10.1762 1.176 9.00023 2.625 9.00023H7.7505C7.81675 9.00005 7.88177 8.98233 7.93894 8.94887C7.99612 8.91541 8.04341 8.8674 8.076 8.80972L12.5205 0.946725ZM7.125 20.4737L7.719 20.9687C8.325 21.4742 9.09 21.7502 9.879 21.7502H17.2545C17.6596 21.7505 18.0539 21.6196 18.3784 21.377C18.7029 21.1345 18.9401 20.7934 19.0545 20.4047L20.757 14.6162C20.8722 14.2248 20.8945 13.8118 20.8222 13.4102C20.7499 13.0086 20.585 12.6294 20.3406 12.3026C20.0961 11.9759 19.7788 11.7107 19.4139 11.528C19.049 11.3453 18.6466 11.2502 18.2385 11.2502H15.75C15.5759 11.2502 15.4042 11.2097 15.2484 11.1321C15.0925 11.0544 14.9569 10.9416 14.852 10.8026C14.7472 10.6636 14.6761 10.5022 14.6442 10.331C14.6124 10.1599 14.6207 9.98363 14.6685 9.81623L15.765 5.97923C15.9506 5.32944 15.8784 4.63311 15.5635 4.03519C15.2486 3.43727 14.7153 2.98382 14.0745 2.76923L10.035 9.91672C9.80634 10.3213 9.47437 10.658 9.073 10.8923C8.67163 11.1266 8.21525 11.2501 7.7505 11.2502H7.125V20.4737ZM4.875 11.2502H2.625C2.52554 11.2502 2.43016 11.2897 2.35984 11.3601C2.28951 11.4304 2.25 11.5258 2.25 11.6252V21.3752C2.25 21.5822 2.418 21.7502 2.625 21.7502H4.5C4.59946 21.7502 4.69484 21.7107 4.76516 21.6404C4.83549 21.5701 4.875 21.4747 4.875 21.3752V11.2502Z" fill="#141414"/>
</g>
<defs>
<clipPath id="clip0_36_882">
<rect width="24" height="24" fill="white"/>
</clipPath>
</defs>
</svg>
