<svg width="16" height="16" viewBox="0 0 16 16" fill="none" xmlns="http://www.w3.org/2000/svg">
<g clip-path="url(#clip0_261_799)">
<path d="M8.347 0.630998C8.42267 0.497026 8.53772 0.38957 8.67653 0.323203C8.81535 0.256836 8.97122 0.23477 9.123 0.259998L9.361 0.299998C9.81249 0.375224 10.243 0.544969 10.6243 0.79812C11.0057 1.05127 11.3292 1.38211 11.5739 1.76899C11.8185 2.15587 11.9786 2.59005 12.0438 3.0431C12.1089 3.49616 12.0777 3.95787 11.952 4.398L11.494 6H12.159C12.6642 5.99999 13.1624 6.11774 13.6141 6.34391C14.0658 6.57007 14.4586 6.89843 14.7612 7.3029C15.0639 7.70737 15.2681 8.17682 15.3576 8.67399C15.4471 9.17116 15.4195 9.68236 15.277 10.167L14.142 14.026C13.9744 14.5959 13.6267 15.0963 13.151 15.4521C12.6752 15.8079 12.0971 16.0002 11.503 16H6.586C5.80254 15.9999 5.03879 15.7544 4.402 15.298C4.239 15.516 4.0274 15.6929 3.78402 15.8148C3.54064 15.9367 3.27219 16.0001 3 16H1.75C1.28587 16 0.840752 15.8156 0.512563 15.4874C0.184374 15.1592 0 14.7141 0 14.25L0 7.75C0 6.784 0.784 6 1.75 6H5.167C5.21116 5.99988 5.25451 5.98807 5.29263 5.96576C5.33074 5.94345 5.36227 5.91145 5.384 5.873L8.347 0.630998ZM4.75 13.649L5.146 13.979C5.55 14.316 6.06 14.5 6.586 14.5H11.503C11.7731 14.5002 12.036 14.4129 12.2523 14.2512C12.4686 14.0895 12.6267 13.8621 12.703 13.603L13.838 9.744C13.9148 9.48302 13.9297 9.20773 13.8815 8.93998C13.8333 8.67224 13.7233 8.41942 13.5604 8.2016C13.3974 7.98377 13.1859 7.80695 12.9426 7.68516C12.6994 7.56337 12.431 7.49997 12.159 7.5H10.5C10.3839 7.49997 10.2695 7.47301 10.1656 7.42123C10.0617 7.36945 9.97125 7.29427 9.90136 7.2016C9.83147 7.10893 9.78404 7.00131 9.76281 6.88719C9.74158 6.77308 9.74712 6.6556 9.779 6.544L10.51 3.986C10.6337 3.55281 10.5856 3.08859 10.3757 2.68997C10.1658 2.29136 9.81019 1.98906 9.383 1.846L6.69 6.611C6.53756 6.88074 6.31625 7.10517 6.04866 7.26136C5.78108 7.41755 5.47683 7.4999 5.167 7.5H4.75V13.649ZM3.25 7.5H1.75C1.6837 7.5 1.62011 7.52634 1.57322 7.57322C1.52634 7.6201 1.5 7.68369 1.5 7.75V14.25C1.5 14.388 1.612 14.5 1.75 14.5H3C3.0663 14.5 3.12989 14.4737 3.17678 14.4268C3.22366 14.3799 3.25 14.3163 3.25 14.25V7.5Z" fill="#5E5E5E"/>
</g>
<defs>
<clipPath id="clip0_261_799">
<rect width="16" height="16" fill="white"/>
</clipPath>
</defs>
</svg>
