<svg width="106" height="40" viewBox="0 0 106 40" fill="none" xmlns="http://www.w3.org/2000/svg">
<g filter="url(#filter0_d_3_851)">
<path d="M25.6472 14.724C25.6472 18.9 23.0792 22.692 18.1352 22.692H12.1112V28.644H6.20715V6.756H18.1352C23.0792 6.756 25.6472 10.548 25.6472 14.724ZM12.1112 17.844H16.7432C18.5432 17.844 19.7432 16.596 19.7432 14.724C19.7432 12.852 18.5432 11.604 16.7432 11.604H12.1112V17.844ZM33.1355 28.644H27.2315V6.756H33.1355V28.644ZM51.798 19.932H57.918C57.174 25.284 52.614 29.148 46.59 29.148C39.774 29.148 35.07 24.18 35.07 17.7C35.07 11.244 39.774 6.276 46.59 6.276C52.734 6.276 57.342 10.308 57.966 15.804H51.846C51.438 13.092 49.494 11.124 46.59 11.124C43.062 11.124 40.734 14.028 40.734 17.7C40.734 21.396 43.062 24.3 46.59 24.3C49.35 24.3 51.294 22.5 51.798 19.932ZM65.4577 28.644H59.5537V6.756H65.4577V16.044L71.9377 6.756H78.4177L70.0417 18.132L78.8977 28.644H72.4177L65.4577 20.604V28.644ZM93.474 28.644H87.57V21.468C84.33 20.388 82.29 17.436 80.97 13.092L79.05 6.756H85.194L86.874 12.612C87.498 14.82 88.578 16.98 90.522 16.98C92.466 16.98 93.546 14.82 94.17 12.612L95.85 6.756H101.994L100.074 13.092C98.754 17.436 96.714 20.388 93.474 21.468V28.644Z" fill="#FF084A"/>
<path d="M24.6472 15.724C24.6472 19.9 22.0792 23.692 17.1352 23.692H11.1112V29.644H5.20715V7.756H17.1352C22.0792 7.756 24.6472 11.548 24.6472 15.724ZM11.1112 18.844H15.7432C17.5432 18.844 18.7432 17.596 18.7432 15.724C18.7432 13.852 17.5432 12.604 15.7432 12.604H11.1112V18.844ZM32.1355 29.644H26.2315V7.756H32.1355V29.644ZM50.798 20.932H56.918C56.174 26.284 51.614 30.148 45.59 30.148C38.774 30.148 34.07 25.18 34.07 18.7C34.07 12.244 38.774 7.276 45.59 7.276C51.734 7.276 56.342 11.308 56.966 16.804H50.846C50.438 14.092 48.494 12.124 45.59 12.124C42.062 12.124 39.734 15.028 39.734 18.7C39.734 22.396 42.062 25.3 45.59 25.3C48.35 25.3 50.294 23.5 50.798 20.932ZM64.4577 29.644H58.5537V7.756H64.4577V17.044L70.9377 7.756H77.4177L69.0417 19.132L77.8977 29.644H71.4177L64.4577 21.604V29.644ZM92.474 29.644H86.57V22.468C83.33 21.388 81.29 18.436 79.97 14.092L78.05 7.756H84.194L85.874 13.612C86.498 15.82 87.578 17.98 89.522 17.98C91.466 17.98 92.546 15.82 93.17 13.612L94.85 7.756H100.994L99.074 14.092C97.754 18.436 95.714 21.388 92.474 22.468V29.644Z" fill="white"/>
<path d="M23.6472 16.724C23.6472 20.9 21.0792 24.692 16.1352 24.692H10.1112V30.644H4.20715V8.756H16.1352C21.0792 8.756 23.6472 12.548 23.6472 16.724ZM10.1112 19.844H14.7432C16.5432 19.844 17.7432 18.596 17.7432 16.724C17.7432 14.852 16.5432 13.604 14.7432 13.604H10.1112V19.844ZM31.1355 30.644H25.2315V8.756H31.1355V30.644ZM49.798 21.932H55.918C55.174 27.284 50.614 31.148 44.59 31.148C37.774 31.148 33.07 26.18 33.07 19.7C33.07 13.244 37.774 8.276 44.59 8.276C50.734 8.276 55.342 12.308 55.966 17.804H49.846C49.438 15.092 47.494 13.124 44.59 13.124C41.062 13.124 38.734 16.028 38.734 19.7C38.734 23.396 41.062 26.3 44.59 26.3C47.35 26.3 49.294 24.5 49.798 21.932ZM63.4577 30.644H57.5537V8.756H63.4577V18.044L69.9377 8.756H76.4177L68.0417 20.132L76.8977 30.644H70.4177L63.4577 22.604V30.644ZM91.474 30.644H85.57V23.468C82.33 22.388 80.29 19.436 78.97 15.092L77.05 8.756H83.194L84.874 14.612C85.498 16.82 86.578 18.98 88.522 18.98C90.466 18.98 91.546 16.82 92.17 14.612L93.85 8.756H99.994L98.074 15.092C96.754 19.436 94.714 22.388 91.474 23.468V30.644Z" fill="#FF084A"/>
</g>
<defs>
<filter id="filter0_d_3_851" x="0.207031" y="6.276" width="105.787" height="32.872" filterUnits="userSpaceOnUse" color-interpolation-filters="sRGB">
<feFlood flood-opacity="0" result="BackgroundImageFix"/>
<feColorMatrix in="SourceAlpha" type="matrix" values="0 0 0 0 0 0 0 0 0 0 0 0 0 0 0 0 0 0 127 0" result="hardAlpha"/>
<feOffset dy="4"/>
<feGaussianBlur stdDeviation="2"/>
<feComposite in2="hardAlpha" operator="out"/>
<feColorMatrix type="matrix" values="0 0 0 0 0 0 0 0 0 0 0 0 0 0 0 0 0 0 0.25 0"/>
<feBlend mode="normal" in2="BackgroundImageFix" result="effect1_dropShadow_3_851"/>
<feBlend mode="normal" in="SourceGraphic" in2="effect1_dropShadow_3_851" result="shape"/>
</filter>
</defs>
</svg>
