<?xml version="1.0" encoding="UTF-8" standalone="no"?>
<!DOCTYPE svg PUBLIC "-//W3C//DTD SVG 1.1//EN" "http://www.w3.org/Graphics/SVG/1.1/DTD/svg11.dtd">
<svg width="100%" height="100%" viewBox="0 0 1445 595" version="1.1" xmlns="http://www.w3.org/2000/svg" xmlns:xlink="http://www.w3.org/1999/xlink" xml:space="preserve" xmlns:serif="http://www.serif.com/" style="fill-rule:evenodd;clip-rule:evenodd;stroke-linejoin:round;stroke-miterlimit:2;">
    <g transform="matrix(2.77778,0,0,2.77778,0,0)">
        <path d="M189,35L196,36C196,36 198.547,35.532 199,34L204,28C204,28 204.973,26.519 207,30L208,37C208,37 207.876,38.951 211,40L216,42C216,42 219.701,43.021 217,45L211,49C211,49 208.979,49.878 209,52L209,60C209,60 207.751,62.369 206,61L200.562,56C200.562,56 199.65,54.27 198,55L189,58C189,58 186.728,57.669 188,54L191,48C191,48 191.835,45.452 190,44L187,39C187,39 183.889,34.345 189,35Z" style="fill:rgb(241,0,69);"/>
        <path d="M188,69L202.025,69C202.025,69 208.049,69.662 206,75C206,75 204.088,83.56 198,96C198,96 189.402,116.003 186.062,126C186.062,126 182.529,136.503 186.062,139C186.062,139 190.552,146.272 209,120C209,120 214.904,111.423 217,107C217,107 228.929,68.173 261,67C261,67 284.29,65.451 288,83C288,83 291.138,100.211 282,109C282,109 281.458,110 279,110L264,110C264,110 258.476,108.578 261,104C261,104 270.619,84.4 260,88C260,88 252.61,85.676 242,109C242,109 229.519,133.472 243,138C243,138 258.432,147.563 279,130C279,130 294.939,121.929 306,88L323,44.557C323,44.557 326.039,37 331,37L346,37C346,37 351.766,38.244 349,43L338,70C338,70 334.981,76.315 342,74C342,74 359.003,60.598 372,71.5C372,71.5 381.889,80.226 371,100C371,100 362.722,120.268 348,123C348,123 341.384,123.5 343,132C343,132 344.88,144.753 355,140C355,140 369.89,138.102 388,106C388,106 396.598,83.804 401,74C401,74 402.826,69 405,69L422,69C422,69 427.252,69.936 425,76C425,76 411.899,106.801 406,122C406,122 398.56,138.838 407,139C407,139 414.597,139.898 427,116C427,116 436.629,95.268 443,77C443,77 445.891,68.872 450,69L466,69C466,69 471.721,70.963 469,76L442,142C442,142 439.955,147.563 446,144C446,144 465.034,131.706 475,111C475,111 478.698,104.698 482,108L486.186,112.186C486.186,112.186 488.45,115.107 486,118C486,118 469.859,145.28 445,157C445,157 442.119,159.005 438,161C438,161 431.437,163.275 430,170C430,170 424.367,195.656 407,202C407,202 387.48,211.662 378,199C378,199 363.749,183.436 385,169C385,169 391.421,164.613 403,160C403,160 418.812,153.674 411,151C411,151 409.117,151.26 408,153C408,153 382.346,164.209 379,142C379,142 379.528,136.63 375,141C375,141 353.328,167.168 331,153C331,153 313.092,140.013 323,118C323,118 325.409,113.88 332,115C332,115 341.658,115.432 347,99C347,99 351.726,87.395 342,88C342,88 327.581,88.815 321,112C321,112 312.992,132.33 306,148C306,148 304.5,154.277 299,154L286,154C286,154 278.946,154.418 282,147C282,147 282.105,143.14 279,146C279,146 245.702,168.912 221,148C221,148 214.517,143.171 214,137C214,137 214.522,132.565 212,136C209.478,139.435 181.082,172.212 161,147C161,147 156.601,132.372 166,114L183,71.5C183,71.5 183.85,68.776 188,69Z" style="fill:rgb(241,0,69);"/>
        <path d="M399,174C399,174 387.793,177.269 387,185C387,185 387.555,191.376 394,188C394,188 397.882,185.5 402,179C402,179 405.774,170.86 399,174Z" style="fill:white;"/>
        <path d="M53,95C53,95 56.974,101.026 61,97L70,90C70,90 72.64,87.487 71,84C71,84 63.09,60.693 85,44C85,44 105.79,24.032 137,41C137,41 156.584,56.974 142,83C142,83 130.863,105.263 106,98C106,98 100.862,96.372 104,90L112,69C112,69 116.727,60.821 120,59C120,59 126.767,54.948 123,47.779C123,47.779 120.309,39.122 112,43C112,43 94.662,48.173 88,70L56,146C56,146 49.904,155.797 58,157L73,157C73,157 78.246,156.784 80,151C80,151 86.407,136.878 92,118C92,118 95.22,109.325 101,115C101,115 133.933,124.938 151,107C151,107 180.534,84.94 167,44C167,44 151.798,2.737 88,19C88,19 34.956,37.865 53,95Z" style="fill:rgb(241,0,69);"/>
    </g>
</svg>
