<svg width="27" height="27" viewBox="0 0 27 27" fill="none" xmlns="http://www.w3.org/2000/svg">
<rect width="27" height="27" rx="13.5" fill="black"/>
<path d="M13.5 15.153L10.0137 18.6393C9.79326 18.8597 9.51275 18.9699 9.17213 18.9699C8.83151 18.9699 8.551 18.8597 8.3306 18.6393C8.1102 18.4189 8 18.1384 8 17.7978C8 17.4572 8.1102 17.1767 8.3306 16.9563L11.8169 13.4699L8.3306 10.0137C8.1102 9.79326 8 9.51275 8 9.17213C8 8.83151 8.1102 8.551 8.3306 8.3306C8.551 8.1102 8.83151 8 9.17213 8C9.51275 8 9.79326 8.1102 10.0137 8.3306L13.5 11.8169L16.9563 8.3306C17.1767 8.1102 17.4572 8 17.7978 8C18.1384 8 18.4189 8.1102 18.6393 8.3306C18.8798 8.57104 19 8.85656 19 9.18716C19 9.51776 18.8798 9.79326 18.6393 10.0137L15.153 13.4699L18.6393 16.9563C18.8597 17.1767 18.9699 17.4572 18.9699 17.7978C18.9699 18.1384 18.8597 18.4189 18.6393 18.6393C18.3989 18.8798 18.1134 19 17.7828 19C17.4522 19 17.1767 18.8798 16.9563 18.6393L13.5 15.153Z" fill="white"/>
</svg>
