<svg width="24" height="22" viewBox="0 0 24 22" fill="none" xmlns="http://www.w3.org/2000/svg">
<path d="M20.4147 7.86741L20.1463 8.48488C20.1044 8.58543 20.0336 8.67132 19.943 8.73173C19.8523 8.79214 19.7458 8.82438 19.6369 8.82438C19.5279 8.82438 19.4214 8.79214 19.3308 8.73173C19.2401 8.67132 19.1694 8.58543 19.1274 8.48488L18.859 7.86741C18.3872 6.77507 17.5231 5.89926 16.4372 5.41279L15.6091 5.04296C15.5087 4.99675 15.4236 4.92271 15.3639 4.8296C15.3043 4.7365 15.2726 4.62825 15.2726 4.51767C15.2726 4.4071 15.3043 4.29884 15.3639 4.20574C15.4236 4.11264 15.5087 4.03859 15.6091 3.99238L16.3913 3.64437C17.5045 3.14405 18.3835 2.23584 18.847 1.10685L19.123 0.440281C19.1636 0.337027 19.2343 0.248382 19.3259 0.185901C19.4176 0.123419 19.526 0.0900002 19.6369 0.0900002C19.7478 0.0900002 19.8562 0.123419 19.9478 0.185901C20.0395 0.248382 20.1102 0.337027 20.1507 0.440281L20.4267 1.10575C20.8898 2.23496 21.7683 3.14356 22.8813 3.64437L23.6646 3.99348C23.7648 4.03982 23.8496 4.11385 23.909 4.20683C23.9684 4.29982 24 4.40787 24 4.51822C24 4.62857 23.9684 4.73662 23.909 4.8296C23.8496 4.92258 23.7648 4.99662 23.6646 5.04296L22.8355 5.4117C21.7498 5.89866 20.8861 6.77486 20.4147 7.86741ZM1.08221 2.27306H13.0913V4.45494H2.18188V19.7281H19.6369V11.0006H21.8188V20.8267C21.8168 21.1132 21.7021 21.3874 21.4996 21.5901C21.2971 21.7928 21.023 21.9077 20.7365 21.91H1.08221C0.79509 21.9097 0.519828 21.7954 0.316906 21.5923C0.113983 21.3892 -1.45591e-07 21.1138 0 20.8267V3.35637C0.00199646 3.06986 0.116622 2.79564 0.319113 2.59294C0.521605 2.39025 0.795708 2.27535 1.08221 2.27306ZM9.40606 8.18051L14.7287 11.7282C14.7886 11.7681 14.8377 11.8221 14.8716 11.8855C14.9056 11.9488 14.9234 12.0196 14.9234 12.0915C14.9234 12.1634 14.9056 12.2342 14.8716 12.2976C14.8377 12.361 14.7886 12.415 14.7287 12.4548L9.40497 16.0026C9.33933 16.0461 9.26313 16.071 9.18446 16.0747C9.1058 16.0784 9.02759 16.0608 8.95813 16.0237C8.88868 15.9865 8.83057 15.9313 8.78997 15.8638C8.74936 15.7963 8.72778 15.7191 8.7275 15.6404V8.5427C8.72765 8.46377 8.7492 8.38636 8.78986 8.31871C8.83052 8.25106 8.88876 8.1957 8.95839 8.15854C9.02802 8.12137 9.10643 8.10379 9.18527 8.10765C9.2641 8.11152 9.34041 8.1367 9.40606 8.18051Z" fill="#C8C8C8"/>
</svg>
