<svg width="31" height="28" viewBox="0 0 31 28" fill="none" xmlns="http://www.w3.org/2000/svg">
<path d="M26.2978 9.98017L25.9534 10.7725C25.8996 10.9016 25.8088 11.0118 25.6924 11.0893C25.5761 11.1668 25.4394 11.2082 25.2996 11.2082C25.1598 11.2082 25.0232 11.1668 24.9068 11.0893C24.7905 11.0118 24.6997 10.9016 24.6459 10.7725L24.3015 9.98017C23.696 8.57846 22.5871 7.4546 21.1937 6.83034L20.1311 6.35577C20.0022 6.29647 19.893 6.20146 19.8165 6.08198C19.7399 5.96251 19.6992 5.8236 19.6992 5.68171C19.6992 5.53981 19.7399 5.4009 19.8165 5.28143C19.893 5.16196 20.0022 5.06694 20.1311 5.00764L21.1349 4.56107C22.5634 3.91903 23.6912 2.7536 24.2861 1.30484L24.6403 0.449489C24.6923 0.316992 24.783 0.20324 24.9006 0.123062C25.0182 0.0428841 25.1573 0 25.2996 0C25.442 0 25.581 0.0428841 25.6986 0.123062C25.8162 0.20324 25.907 0.316992 25.959 0.449489L26.3132 1.30344C26.9074 2.75247 28.0348 3.91841 29.463 4.56107L30.4681 5.00904C30.5966 5.06851 30.7055 5.16351 30.7817 5.28283C30.858 5.40215 30.8985 5.5408 30.8985 5.68241C30.8985 5.82401 30.858 5.96266 30.7817 6.08198C30.7055 6.2013 30.5966 6.2963 30.4681 6.35577L29.4042 6.82894C28.011 7.45382 26.9026 8.57819 26.2978 9.98017ZM1.48979 2.80136H16.9001V5.60121H2.90091V25.2002H25.2996V14.0008H28.0995V26.6099C28.0969 26.9775 27.9498 27.3294 27.69 27.5895C27.4301 27.8496 27.0784 27.9971 26.7108 28H1.48979C1.12135 27.9996 0.768132 27.853 0.507736 27.5923C0.247341 27.3317 0.101074 26.9783 0.101074 26.6099V4.19149C0.103636 3.82384 0.250726 3.47195 0.510569 3.21184C0.770412 2.95174 1.12215 2.80429 1.48979 2.80136ZM12.1712 10.382L19.0014 14.9345C19.0782 14.9856 19.1412 15.0549 19.1848 15.1363C19.2283 15.2176 19.2511 15.3084 19.2511 15.4007C19.2511 15.4929 19.2283 15.5838 19.1848 15.6651C19.1412 15.7464 19.0782 15.8157 19.0014 15.8669L12.1698 20.4194C12.0855 20.4752 11.9878 20.5072 11.8868 20.512C11.7859 20.5168 11.6855 20.4941 11.5964 20.4465C11.5073 20.3988 11.4327 20.328 11.3806 20.2414C11.3285 20.1548 11.3008 20.0557 11.3004 19.9546V10.8467C11.3006 10.7454 11.3283 10.6461 11.3805 10.5593C11.4326 10.4725 11.5074 10.4015 11.5967 10.3538C11.6861 10.3061 11.7867 10.2835 11.8878 10.2885C11.989 10.2934 12.0869 10.3257 12.1712 10.382Z" fill="#141414"/>
</svg>
