<svg width="28" height="28" viewBox="0 0 28 28" fill="none" xmlns="http://www.w3.org/2000/svg">
<rect width="28" height="28" rx="14" fill="#FF084A"/>
<path d="M14.8889 6.75834C14.6532 6.52288 14.3336 6.39062 14.0004 6.39062C13.6672 6.39062 13.3477 6.52288 13.1119 6.75834L8.36838 11.4993C8.13251 11.7352 8 12.0551 8 12.3887C8 12.7223 8.13251 13.0422 8.36838 13.2781C8.60426 13.5139 8.92417 13.6464 9.25774 13.6464C9.59131 13.6464 9.91123 13.5139 10.1471 13.2781L12.7431 10.6829V20.3518C12.7431 20.6853 12.8756 21.0051 13.1113 21.2409C13.3471 21.4767 13.667 21.6092 14.0004 21.6092C14.3339 21.6092 14.6537 21.4767 14.8895 21.2409C15.1253 21.0051 15.2578 20.6853 15.2578 20.3518V10.6829L17.8529 13.2781C17.9697 13.3948 18.1083 13.4875 18.2609 13.5507C18.4135 13.6139 18.5771 13.6464 18.7423 13.6464C18.9074 13.6464 19.071 13.6139 19.2236 13.5507C19.3762 13.4875 19.5148 13.3948 19.6316 13.2781C19.7484 13.1613 19.8411 13.0226 19.9043 12.87C19.9675 12.7174 20 12.5539 20 12.3887C20 12.2235 19.9675 12.06 19.9043 11.9074C19.8411 11.7548 19.7484 11.6161 19.6316 11.4993L14.8889 6.75834Z" fill="white"/>
</svg>
