<svg width="16" height="18" viewBox="0 0 16 18" fill="none" xmlns="http://www.w3.org/2000/svg">
<path d="M13.3333 12.662C12.6578 12.662 12.0533 12.9287 11.5911 13.3465L5.25333 9.6576C5.29778 9.45315 5.33333 9.24871 5.33333 9.03537C5.33333 8.82204 5.29778 8.6176 5.25333 8.41315L11.52 4.75982C12 5.20426 12.6311 5.47982 13.3333 5.47982C14.8089 5.47982 16 4.28871 16 2.81315C16 1.3376 14.8089 0.146484 13.3333 0.146484C11.8578 0.146484 10.6667 1.3376 10.6667 2.81315C10.6667 3.02648 10.7022 3.23093 10.7467 3.43537L4.48 7.08871C4 6.64426 3.36889 6.36871 2.66667 6.36871C1.19111 6.36871 0 7.55982 0 9.03537C0 10.5109 1.19111 11.702 2.66667 11.702C3.36889 11.702 4 11.4265 4.48 10.982L10.8089 14.6798C10.7644 14.8665 10.7378 15.062 10.7378 15.2576C10.7378 16.6887 11.9022 17.8532 13.3333 17.8532C14.7644 17.8532 15.9289 16.6887 15.9289 15.2576C15.9289 13.8265 14.7644 12.662 13.3333 12.662ZM13.3333 1.92426C13.8222 1.92426 14.2222 2.32426 14.2222 2.81315C14.2222 3.30204 13.8222 3.70204 13.3333 3.70204C12.8444 3.70204 12.4444 3.30204 12.4444 2.81315C12.4444 2.32426 12.8444 1.92426 13.3333 1.92426ZM2.66667 9.92426C2.17778 9.92426 1.77778 9.52426 1.77778 9.03537C1.77778 8.54648 2.17778 8.14648 2.66667 8.14648C3.15556 8.14648 3.55556 8.54648 3.55556 9.03537C3.55556 9.52426 3.15556 9.92426 2.66667 9.92426ZM13.3333 16.1643C12.8444 16.1643 12.4444 15.7643 12.4444 15.2754C12.4444 14.7865 12.8444 14.3865 13.3333 14.3865C13.8222 14.3865 14.2222 14.7865 14.2222 15.2754C14.2222 15.7643 13.8222 16.1643 13.3333 16.1643Z" fill="white"/>
</svg>
