<svg width="9" height="8" viewBox="0 0 9 8" fill="none" xmlns="http://www.w3.org/2000/svg">
<path d="M4.16644 7.8064C4.12716 7.87445 4.06743 7.92903 3.99536 7.96274C3.92329 7.99645 3.84236 8.00766 3.76356 7.99484L3.64 7.97453C3.40554 7.93633 3.18197 7.8501 2.98394 7.72148C2.78592 7.59286 2.6179 7.42477 2.4909 7.2282C2.3639 7.03164 2.28078 6.81104 2.24699 6.58086C2.2132 6.35067 2.22949 6.1161 2.29482 5.89252L2.5326 5.07932H2.18735C1.92508 5.07932 1.66642 5.01951 1.4319 4.90463C1.19738 4.78976 0.993465 4.62298 0.836337 4.41753C0.679208 4.21209 0.573195 3.97364 0.526712 3.72111C0.480229 3.46858 0.494557 3.20893 0.568557 2.96277L1.15782 1.00266C1.24448 0.714415 1.42382 0.461191 1.66923 0.28057C1.91464 0.0999485 2.21304 0.00155726 2.52014 0H5.08902C5.49397 0.00152379 5.88751 0.126983 6.21459 0.356568C6.29864 0.246601 6.40758 0.157179 6.53288 0.0953143C6.65817 0.0334499 6.79642 0.000825537 6.93676 0L7.59715 0C7.83713 0.00147577 8.06676 0.0957765 8.23591 0.262314C8.40507 0.428852 8.5 0.6541 8.5 0.88888V4.19044C8.5 4.42618 8.40428 4.65227 8.23389 4.81897C8.0635 4.98567 7.83241 5.07932 7.59144 5.07932H5.81742C5.79449 5.07937 5.77199 5.08537 5.7522 5.09671C5.73241 5.10804 5.71604 5.12429 5.70476 5.14382L4.16644 7.8064ZM6.03392 1.19415L5.82832 1.02653C5.61841 0.855513 5.35388 0.761875 5.08071 0.761897H2.52741C2.38728 0.761911 2.25092 0.806298 2.13871 0.888423C2.02651 0.970548 1.94449 1.086 1.90491 1.21751L1.31565 3.17762C1.27578 3.31018 1.26805 3.45001 1.29307 3.58601C1.31809 3.722 1.37517 3.85042 1.45979 3.96105C1.5444 4.07169 1.65422 4.16151 1.78051 4.22337C1.90681 4.28523 2.04611 4.31743 2.18735 4.31742H3.04866C3.10892 4.31743 3.16835 4.33113 3.22229 4.35743C3.27622 4.38373 3.32317 4.42192 3.35946 4.46898C3.39574 4.51605 3.42037 4.57072 3.43139 4.62868C3.44241 4.68664 3.43954 4.74631 3.42298 4.803L3.04347 6.10229C2.97923 6.32232 3.00421 6.55811 3.1132 6.76058C3.22219 6.96305 3.40679 7.1166 3.62858 7.18926L5.02672 4.76897C5.10586 4.63196 5.22076 4.51797 5.35968 4.43863C5.4986 4.3593 5.65656 4.31747 5.81742 4.31742H6.03392V1.19415ZM6.81268 4.31742H7.59144C7.62587 4.31742 7.65888 4.30404 7.68322 4.28023C7.70756 4.25641 7.72124 4.22411 7.72124 4.19044V0.88888C7.72124 0.855202 7.70756 0.822904 7.68322 0.79909C7.65888 0.775276 7.62587 0.761897 7.59144 0.761897H6.94247C6.90805 0.761897 6.87504 0.775276 6.8507 0.79909C6.82635 0.822904 6.81268 0.855202 6.81268 0.88888V4.31742Z" fill="#756262"/>
</svg>
