<svg width="28" height="28" viewBox="0 0 28 28" fill="none" xmlns="http://www.w3.org/2000/svg">
<path d="M15.1674 0.677594C15.305 0.439425 15.514 0.248393 15.7662 0.130409C16.0185 0.0124244 16.3017 -0.0268038 16.5775 0.0180447L17.01 0.0891552C17.8304 0.222889 18.6127 0.524656 19.3056 0.974697C19.9986 1.42474 20.5865 2.0129 21.031 2.70067C21.4755 3.38845 21.7665 4.16031 21.8849 4.96574C22.0033 5.77116 21.9465 6.59197 21.7181 7.37442L20.8859 10.2224H22.0943C23.0122 10.2224 23.9175 10.4317 24.7384 10.8338C25.5592 11.2359 26.2729 11.8196 26.8228 12.5386C27.3728 13.2577 27.7438 14.0923 27.9065 14.9761C28.0692 15.86 28.0191 16.7687 27.76 17.6303L25.6976 24.4907C25.393 25.5039 24.7612 26.3934 23.8968 27.026C23.0323 27.6586 21.9818 28.0003 20.9023 28H11.9675C10.5439 27.9998 9.15606 27.5634 7.99894 26.752C7.70274 27.1395 7.31824 27.4541 6.87599 27.6708C6.43374 27.8874 5.94593 28.0001 5.45134 28H3.17995C2.33657 28 1.52774 27.6722 0.931386 27.0888C0.335029 26.5053 0 25.714 0 24.8889L0 13.3335C0 11.6162 1.42462 10.2224 3.17995 10.2224H9.38903C9.46928 10.2222 9.54804 10.2012 9.61731 10.1615C9.68657 10.1219 9.74386 10.065 9.78334 9.99662L15.1674 0.677594ZM8.63129 23.8205L9.35087 24.4071C10.085 25.0063 11.0117 25.3334 11.9675 25.3334H20.9023C21.393 25.3337 21.8707 25.1785 22.2638 24.8911C22.6569 24.6036 22.9442 24.1993 23.0828 23.7387L25.1452 16.8783C25.2848 16.4144 25.3118 15.925 25.2243 15.449C25.1367 14.973 24.9369 14.5235 24.6407 14.1363C24.3446 13.7491 23.9602 13.4347 23.5182 13.2182C23.0762 13.0017 22.5886 12.889 22.0943 12.889H19.0797C18.8688 12.889 18.6608 12.8411 18.472 12.749C18.2832 12.657 18.1189 12.5233 17.9919 12.3586C17.8649 12.1938 17.7787 12.0025 17.7401 11.7996C17.7016 11.5968 17.7116 11.3879 17.7696 11.1895L19.0979 6.64198C19.3227 5.87187 19.2353 5.0466 18.8538 4.33796C18.4723 3.62932 17.8262 3.0919 17.05 2.83757L12.1565 11.3086C11.8795 11.7881 11.4773 12.1871 10.9911 12.4648C10.5049 12.7425 9.95203 12.8889 9.38903 12.889H8.63129V23.8205ZM5.90562 12.889H3.17995C3.05947 12.889 2.94392 12.9359 2.85873 13.0192C2.77353 13.1026 2.72567 13.2156 2.72567 13.3335V24.8889C2.72567 25.1342 2.92919 25.3334 3.17995 25.3334H5.45134C5.57182 25.3334 5.68737 25.2865 5.77256 25.2032C5.85776 25.1198 5.90562 25.0068 5.90562 24.8889V12.889Z" fill="#141414"/>
</svg>
