<svg width="8" height="8" viewBox="0 0 8 8" fill="none" xmlns="http://www.w3.org/2000/svg">
<path d="M3.66644 7.8064C3.62716 7.87445 3.56743 7.92903 3.49536 7.96274C3.42329 7.99645 3.34236 8.00766 3.26356 7.99484L3.14 7.97453C2.90554 7.93633 2.68197 7.8501 2.48394 7.72148C2.28592 7.59286 2.1179 7.42477 1.9909 7.2282C1.8639 7.03164 1.78078 6.81104 1.74699 6.58086C1.7132 6.35067 1.72949 6.1161 1.79482 5.89251L2.0326 5.07932H1.68735C1.42508 5.07932 1.16642 5.01951 0.931899 4.90463C0.697381 4.78976 0.493465 4.62298 0.336337 4.41753C0.179208 4.21209 0.0731951 3.97364 0.0267122 3.72111C-0.0197707 3.46858 -0.00544324 3.20893 0.0685573 2.96277L0.657821 1.00266C0.744476 0.714415 0.923818 0.461191 1.16923 0.28057C1.41464 0.0999485 1.71304 0.00155726 2.02014 0H4.58902C4.99397 0.00152379 5.38751 0.126983 5.71459 0.356568C5.79864 0.246601 5.90758 0.157179 6.03288 0.0953143C6.15817 0.0334499 6.29642 0.000825537 6.43676 0L7.09715 0C7.33713 0.00147577 7.56676 0.0957765 7.73591 0.262314C7.90507 0.428852 8 0.6541 8 0.88888V4.19044C8 4.42618 7.90428 4.65227 7.73389 4.81897C7.5635 4.98567 7.33241 5.07932 7.09144 5.07932H5.31742C5.29449 5.07937 5.27199 5.08537 5.2522 5.09671C5.23241 5.10804 5.21604 5.12429 5.20476 5.14382L3.66644 7.8064ZM5.53392 1.19415L5.32832 1.02653C5.11841 0.855513 4.85388 0.761875 4.58071 0.761897H2.02741C1.88728 0.761911 1.75092 0.806298 1.63871 0.888423C1.52651 0.970548 1.44449 1.086 1.40491 1.21751L0.815651 3.17762C0.775781 3.31018 0.768049 3.45001 0.79307 3.58601C0.818091 3.722 0.875175 3.85042 0.95979 3.96105C1.0444 4.07169 1.15422 4.16151 1.28051 4.22337C1.40681 4.28523 1.54611 4.31743 1.68735 4.31742H2.54866C2.60892 4.31743 2.66835 4.33113 2.72229 4.35743C2.77622 4.38373 2.82317 4.42192 2.85946 4.46898C2.89574 4.51605 2.92037 4.57072 2.93139 4.62868C2.94241 4.68664 2.93954 4.74631 2.92298 4.803L2.54347 6.10229C2.47923 6.32232 2.50421 6.55811 2.6132 6.76058C2.72219 6.96305 2.90679 7.1166 3.12858 7.18926L4.52672 4.76897C4.60586 4.63196 4.72076 4.51797 4.85968 4.43863C4.9986 4.3593 5.15656 4.31747 5.31742 4.31742H5.53392V1.19415ZM6.31268 4.31742H7.09144C7.12587 4.31742 7.15888 4.30404 7.18322 4.28023C7.20756 4.25641 7.22124 4.22411 7.22124 4.19044V0.88888C7.22124 0.855202 7.20756 0.822904 7.18322 0.79909C7.15888 0.775276 7.12587 0.761897 7.09144 0.761897H6.44247C6.40805 0.761897 6.37504 0.775276 6.3507 0.79909C6.32635 0.822904 6.31268 0.855202 6.31268 0.88888V4.31742Z" fill="#FF084A"/>
</svg>
