<svg width="9" height="8" viewBox="0 0 9 8" fill="none" xmlns="http://www.w3.org/2000/svg">
<path d="M4.83356 0.193598C4.87284 0.12555 4.93257 0.0709696 5.00464 0.0372597C5.07671 0.00354982 5.15764 -0.00765823 5.23644 0.00515562L5.36 0.0254729C5.59441 0.0636825 5.81792 0.149902 6.0159 0.278485C6.21388 0.407068 6.38187 0.575114 6.50886 0.771621C6.63585 0.968127 6.71899 1.18866 6.75282 1.41878C6.78665 1.6489 6.77042 1.88342 6.70518 2.10698L6.4674 2.92068H6.81265C7.07492 2.92068 7.33358 2.98049 7.5681 3.09537C7.80262 3.21024 8.00654 3.37702 8.16366 3.58247C8.32079 3.78791 8.42681 4.02636 8.47329 4.27889C8.51977 4.53142 8.50544 4.79107 8.43144 5.03723L7.84218 6.99734C7.75515 7.28683 7.57463 7.54096 7.32765 7.7217C7.08067 7.90245 6.78051 8.00008 6.47207 8H3.91929C3.51254 7.99994 3.11602 7.87525 2.78541 7.64343C2.70078 7.75415 2.59093 7.84403 2.46457 7.90593C2.33821 7.96783 2.19884 8.00004 2.05753 8H1.40856C1.16759 8 0.936498 7.90635 0.76611 7.73965C0.595723 7.57296 0.5 7.34687 0.5 7.11112V3.80956C0.5 3.3189 0.907034 2.92068 1.40856 2.92068H3.18258C3.20551 2.92062 3.22801 2.91463 3.2478 2.90329C3.26759 2.89196 3.28396 2.87571 3.29524 2.85618L4.83356 0.193598ZM2.96608 6.80585L3.17168 6.97347C3.38142 7.14464 3.6462 7.2381 3.91929 7.2381H6.47207C6.61229 7.2382 6.74877 7.19386 6.86108 7.11173C6.97339 7.0296 7.05549 6.91409 7.09509 6.78249L7.68435 4.82238C7.72422 4.68982 7.73195 4.54999 7.70693 4.41399C7.68191 4.278 7.62483 4.14958 7.54021 4.03895C7.4556 3.92831 7.34578 3.83849 7.21949 3.77663C7.09319 3.71477 6.95389 3.68257 6.81265 3.68258H5.95134C5.89108 3.68257 5.83165 3.66887 5.77772 3.64257C5.72378 3.61627 5.67683 3.57808 5.64054 3.53101C5.60426 3.48395 5.57963 3.42928 5.56861 3.37132C5.55759 3.31336 5.56046 3.25369 5.57702 3.197L5.95653 1.89771C6.02077 1.67768 5.99579 1.44189 5.8868 1.23942C5.77781 1.03695 5.59321 0.883401 5.37142 0.810735L3.97328 3.23103C3.89414 3.36804 3.77924 3.48203 3.64032 3.56137C3.5014 3.6407 3.34344 3.68253 3.18258 3.68258H2.96608V6.80585ZM2.18732 3.68258H1.40856C1.37413 3.68258 1.34112 3.69596 1.31678 3.71977C1.29244 3.74359 1.27876 3.77589 1.27876 3.80956V7.11112C1.27876 7.18121 1.33691 7.2381 1.40856 7.2381H2.05753C2.09195 7.2381 2.12496 7.22472 2.1493 7.20091C2.17365 7.1771 2.18732 7.1448 2.18732 7.11112V3.68258Z" fill="#756262"/>
</svg>
