<svg width="10" height="10" viewBox="0 0 10 10" fill="none" xmlns="http://www.w3.org/2000/svg">
<path d="M5.41695 0.241998C5.46605 0.156937 5.54072 0.0887119 5.6308 0.0465746C5.72089 0.00443728 5.82204 -0.00957279 5.92055 0.00644453L6.075 0.0318411C6.36801 0.0796032 6.6474 0.187377 6.89487 0.348106C7.14235 0.508835 7.35233 0.718893 7.51108 0.964526C7.66982 1.21016 7.77374 1.48583 7.81603 1.77348C7.85832 2.06113 7.83803 2.35427 7.75648 2.63372L7.45925 3.65085H7.89082C8.21866 3.65085 8.54198 3.72561 8.83513 3.86921C9.12827 4.0128 9.38317 4.22128 9.57958 4.47808C9.77599 4.73489 9.90851 5.03295 9.96661 5.34861C10.0247 5.66427 10.0068 5.98884 9.9143 6.29654L9.17772 8.74668C9.06893 9.10854 8.84329 9.4262 8.53456 9.65213C8.22584 9.87806 7.85063 10.0001 7.46509 10H4.27411C3.76567 9.99993 3.27002 9.84406 2.85676 9.55429C2.75098 9.69269 2.61366 9.80504 2.45571 9.88241C2.29777 9.95979 2.12355 10 1.94691 10H1.1357C0.834491 10 0.545622 9.88294 0.332638 9.67457C0.119653 9.46619 0 9.18358 0 8.8889L0 4.76195C0 4.14863 0.508792 3.65085 1.1357 3.65085H3.35322C3.38189 3.65078 3.41002 3.64328 3.43475 3.62912C3.45949 3.61495 3.47995 3.59463 3.49405 3.57022L5.41695 0.241998ZM3.0826 8.50732L3.3396 8.71684C3.60178 8.9308 3.93275 9.04763 4.27411 9.04763H7.46509C7.64037 9.04775 7.81096 8.99233 7.95135 8.88966C8.09174 8.787 8.19436 8.64261 8.24386 8.47811L8.98044 6.02798C9.03027 5.86227 9.03994 5.68749 9.00866 5.51749C8.97739 5.3475 8.90603 5.18698 8.80026 5.04868C8.69449 4.91038 8.55723 4.79811 8.39936 4.72079C8.24149 4.64346 8.06737 4.60321 7.89082 4.60323H6.81418C6.73885 4.60321 6.66456 4.58609 6.59714 4.55322C6.52973 4.52034 6.47103 4.47261 6.42568 4.41377C6.38032 4.35493 6.34954 4.2866 6.33576 4.21415C6.32198 4.1417 6.32558 4.06711 6.34627 3.99625L6.82067 2.37214C6.90096 2.0971 6.86973 1.80236 6.7335 1.54927C6.59727 1.29619 6.36652 1.10425 6.08928 1.01342L4.3416 4.03879C4.24268 4.21005 4.09905 4.35254 3.9254 4.45171C3.75175 4.55088 3.5543 4.60316 3.35322 4.60323H3.0826V8.50732ZM2.10915 4.60323H1.1357C1.09267 4.60323 1.0514 4.61995 1.02097 4.64972C0.990547 4.67948 0.973454 4.71986 0.973454 4.76195V8.8889C0.973454 8.97652 1.04614 9.04763 1.1357 9.04763H1.94691C1.98994 9.04763 2.0312 9.03091 2.06163 9.00114C2.09206 8.97137 2.10915 8.931 2.10915 8.8889V4.60323Z" fill="#FF084A"/>
</svg>
