<svg width="10" height="10" viewBox="0 0 10 10" fill="none" xmlns="http://www.w3.org/2000/svg">
<path d="M4.58305 9.758C4.53395 9.84306 4.45929 9.91129 4.3692 9.95343C4.27911 9.99556 4.17796 10.0096 4.07945 9.99356L3.925 9.96816C3.63192 9.92041 3.35246 9.81262 3.10493 9.65185C2.8574 9.49108 2.64737 9.28096 2.48862 9.03525C2.32987 8.78954 2.22597 8.5138 2.18373 8.22607C2.14149 7.93834 2.16187 7.64513 2.24352 7.36564L2.54075 6.34915H2.10918C1.78135 6.34915 1.45802 6.27439 1.16487 6.13079C0.871727 5.9872 0.616831 5.77872 0.420421 5.52192C0.224011 5.26511 0.0914938 4.96705 0.0333902 4.65139C-0.0247134 4.33573 -0.00680405 4.01116 0.0856966 3.70346L0.822277 1.25332C0.930595 0.893019 1.15477 0.576489 1.46154 0.350712C1.7683 0.124936 2.1413 0.00194657 2.52517 0H5.73627C6.24247 0.00190474 6.73439 0.158729 7.14324 0.44571C7.2483 0.308251 7.38448 0.196473 7.5411 0.119143C7.69772 0.0418124 7.87052 0.00103192 8.04595 0L8.87144 0C9.17141 0.00184471 9.45845 0.119721 9.66989 0.327893C9.88133 0.536065 10 0.817624 10 1.1111V5.23805C10 5.53273 9.88035 5.81534 9.66736 6.02371C9.45438 6.23208 9.16551 6.34915 8.8643 6.34915H6.64678C6.61811 6.34922 6.58998 6.35672 6.56525 6.37088C6.54051 6.38505 6.52005 6.40537 6.50595 6.42978L4.58305 9.758ZM6.9174 1.49268L6.6604 1.28316C6.39801 1.06939 6.06734 0.952344 5.72589 0.952372H2.53426C2.3591 0.952388 2.18865 1.00787 2.04839 1.11053C1.90813 1.21318 1.80561 1.3575 1.75614 1.52189L1.01956 3.97203C0.969726 4.13773 0.960062 4.31251 0.991338 4.48251C1.02261 4.6525 1.09397 4.81302 1.19974 4.95132C1.30551 5.08962 1.44277 5.20189 1.60064 5.27921C1.75851 5.35654 1.93263 5.39679 2.10918 5.39677H3.18582C3.26115 5.39679 3.33544 5.41391 3.40286 5.44678C3.47027 5.47966 3.52897 5.52739 3.57432 5.58623C3.61968 5.64507 3.65046 5.7134 3.66424 5.78585C3.67802 5.8583 3.67442 5.93289 3.65373 6.00375L3.17933 7.62786C3.09904 7.9029 3.13027 8.19764 3.2665 8.45073C3.40273 8.70381 3.63349 8.89575 3.91072 8.98658L5.6584 5.96121C5.75732 5.78995 5.90095 5.64746 6.0746 5.54829C6.24826 5.44912 6.4457 5.39683 6.64678 5.39677H6.9174V1.49268ZM7.89085 5.39677H8.8643C8.90733 5.39677 8.9486 5.38005 8.97903 5.35028C9.00945 5.32052 9.02655 5.28014 9.02655 5.23805V1.1111C9.02655 1.069 9.00945 1.02863 8.97903 0.998862C8.9486 0.969095 8.90733 0.952372 8.8643 0.952372H8.05309C8.01006 0.952372 7.9688 0.969095 7.93837 0.998862C7.90794 1.02863 7.89085 1.069 7.89085 1.1111V5.39677Z" fill="#FF084A"/>
</svg>
