<svg width="20" height="21" viewBox="0 0 20 21" fill="none" xmlns="http://www.w3.org/2000/svg">
<path id="Vector" d="M14.59 5.75944L8 12.3494L4.41 8.76944L3 10.1794L8 15.1794L16 7.17944L14.59 5.75944ZM10 0.179443C4.48 0.179443 0 4.65944 0 10.1794C0 15.6994 4.48 20.1794 10 20.1794C15.52 20.1794 20 15.6994 20 10.1794C20 4.65944 15.52 0.179443 10 0.179443ZM10 18.1794C5.58 18.1794 2 14.5994 2 10.1794C2 5.75944 5.58 2.17944 10 2.17944C14.42 2.17944 18 5.75944 18 10.1794C18 14.5994 14.42 18.1794 10 18.1794Z" fill="#D9D9D9"/>
</svg>
