<svg width="22" height="22" viewBox="0 0 22 22" fill="none" xmlns="http://www.w3.org/2000/svg">
<path d="M11.0002 0.333332C12.4147 0.333332 13.7712 0.895235 14.7714 1.89543C15.7716 2.89562 16.3335 4.25218 16.3335 5.66667C16.3335 7.08115 15.7716 8.43771 14.7714 9.4379C13.7712 10.4381 12.4147 11 11.0002 11C9.58568 11 8.22912 10.4381 7.22893 9.4379C6.22873 8.43771 5.66683 7.08115 5.66683 5.66667C5.66683 4.25218 6.22873 2.89562 7.22893 1.89543C8.22912 0.895235 9.58568 0.333332 11.0002 0.333332ZM11.0002 13.6667C16.8935 13.6667 21.6668 16.0533 21.6668 19V21.6667H0.333496V19C0.333496 16.0533 5.10683 13.6667 11.0002 13.6667Z" fill="#C8C8C8"/>
</svg>
