<svg width="89" height="20" viewBox="0 0 89 20" fill="none" xmlns="http://www.w3.org/2000/svg">
<g clip-path="url(#clip0_646_861)">
<path d="M27.5672 3.09138C27.4055 2.49381 27.0901 1.94903 26.6524 1.51131C26.2146 1.07358 25.6698 0.758192 25.0722 0.596552C22.8845 0 14.0803 0 14.0803 0C14.0803 0 5.27584 0.0181035 3.08843 0.614655C2.49088 0.776321 1.94611 1.09172 1.50839 1.52945C1.07067 1.96717 0.755268 2.51193 0.593602 3.10948C-0.0681224 6.99655 -0.324847 12.9191 0.611705 16.6505C0.773371 17.2481 1.08877 17.7928 1.5265 18.2306C1.96422 18.6683 2.50898 18.9837 3.10653 19.1453C5.29412 19.7419 14.0984 19.7419 14.0984 19.7419C14.0984 19.7419 22.9027 19.7419 25.0903 19.1453C25.6879 18.9837 26.2326 18.6683 26.6704 18.2306C27.1081 17.7928 27.4235 17.2481 27.5852 16.6505C28.2829 12.7581 28.4981 6.83914 27.567 3.09155" fill="#FF0000"/>
<path d="M11.2783 14.1015L18.5821 9.87114L11.2783 5.64062V14.1015Z" fill="white"/>
<path d="M84.696 5.73097C85.6541 5.73097 86.3772 5.91165 86.8834 6.2551C87.3897 6.59867 87.7513 7.14108 87.9683 7.88234C88.1852 8.62355 88.2755 9.63579 88.2755 10.9375V13.0529H83.6293V13.7036L83.7017 15.4934C83.7559 15.8911 83.8464 16.1804 83.9909 16.3611C84.1357 16.542 84.3705 16.6323 84.6779 16.6323C85.0938 16.6323 85.3831 16.4698 85.5276 16.1444C85.6903 15.8189 85.7626 15.2765 85.7807 14.5353L88.1852 14.6799C88.2033 14.7884 88.2033 14.933 88.2033 15.1137C88.2033 16.2527 87.8959 17.1025 87.2631 17.6629C86.6304 18.2232 85.7626 18.5125 84.6236 18.5125C83.2497 18.5125 82.2916 18.0787 81.7491 17.2291C81.2069 16.3792 80.9176 15.0413 80.9176 13.2517V11.0641C80.979 7.99079 81.5195 5.73993 84.696 5.73097ZM51.2684 5.96596V15.0234C51.2684 15.5658 51.3226 15.9636 51.4491 16.1986C51.7059 16.7011 52.3712 16.5727 52.7328 16.3251C52.9414 16.184 53.1097 15.9908 53.2209 15.7648V5.96579H55.9869V18.3136H53.8174L53.5824 16.7949H53.5283C52.9317 17.9339 52.0457 18.5123 50.8707 18.5123C49.0621 18.5079 48.6195 17.2048 48.5141 15.8813L48.5072 15.788C48.4942 15.5876 48.4866 15.3868 48.4843 15.186V5.96596H51.2684ZM65.5326 5.96596V15.0234C65.5326 15.5658 65.5867 15.9636 65.7133 16.1986C65.9702 16.7011 66.6353 16.5727 66.9969 16.3251C67.2056 16.184 67.3738 15.9908 67.485 15.7648V5.96579H70.251V18.3136H68.0815L67.8466 16.7949H67.7924C67.1959 17.9339 66.3098 18.5123 65.1348 18.5123C63.3262 18.5079 62.8836 17.2048 62.7783 15.8813L62.7714 15.788C62.7583 15.5876 62.7507 15.3868 62.7484 15.186V5.96596H65.5326ZM43.2414 5.73097C44.1453 5.73097 44.8866 5.91165 45.429 6.29131C45.9712 6.67097 46.3871 7.24959 46.6402 8.04493C46.8933 8.84045 47.0198 9.907 47.0198 11.2268V13.0165C47.0198 14.3363 46.8933 15.3849 46.6402 16.1803C46.3871 16.976 45.9893 17.5544 45.429 17.9341C44.8686 18.2956 44.1091 18.4944 43.1691 18.4944C42.1928 18.5125 41.4334 18.3137 40.8731 17.9522C40.3128 17.5725 39.9148 16.9939 39.68 16.1986C39.4448 15.403 39.3364 14.3544 39.3364 13.0348V11.2448C39.3364 9.92493 39.4629 8.84028 39.7341 8.04476C40.0053 7.23131 40.421 6.65269 40.9997 6.29131C41.5781 5.92959 42.3193 5.73079 43.2414 5.73079M74.59 0.777344V7.28562H74.6081C74.8612 6.81562 75.1866 6.43596 75.6386 6.14665C76.0608 5.86296 76.5581 5.7119 77.0667 5.71286C77.7357 5.71286 78.2419 5.89355 78.6216 6.237C79.0012 6.59872 79.2724 7.15907 79.435 7.93648C79.5928 8.68959 79.6824 9.73114 79.6879 11.0446L79.6881 11.1727V13.1251C79.6881 14.951 79.4531 16.307 79.0191 17.1748C78.5674 18.0425 77.8803 18.4765 76.9402 18.4765C76.416 18.4765 75.9459 18.3499 75.5121 18.1149C75.1285 17.8912 74.8104 17.5706 74.5897 17.1853L74.5538 17.1204H74.4997L74.2103 18.2956H71.9143V0.777516L74.59 0.777344ZM63.5257 1.4101V3.65165H60.7778V18.3136H58.066V3.65183H55.3V1.41027L63.5257 1.4101ZM33.7138 1.4101L33.7155 1.417C33.7419 1.53441 34.1074 3.15941 34.5095 5.05269L34.5412 5.20269L34.5891 5.42941L34.6212 5.58165L34.6372 5.65803L34.6693 5.81114L34.6853 5.88786L34.7172 6.04148L34.7638 6.26614C35.0353 7.57717 35.2945 8.892 35.4495 9.83476H35.5219C35.6703 8.98907 35.886 7.90683 36.116 6.80183L36.1764 6.51321C36.2066 6.36861 36.2371 6.22424 36.2678 6.0801L36.315 5.85648C36.6273 4.39214 36.949 2.92981 37.28 1.46959L37.2852 1.44631L37.2934 1.4101H40.0595L36.8595 12.8179V18.2956H34.1297V12.8358H34.1115L30.9478 1.40993L33.7138 1.4101ZM43.1871 7.64717C42.8074 7.64717 42.5543 7.84614 42.3917 8.262C42.2291 8.67786 42.1567 9.31045 42.1567 10.1965V14.0472C42.1567 14.9511 42.229 15.6199 42.3736 16.0179C42.5183 16.4156 42.7895 16.6144 43.1871 16.6144C43.5667 16.6144 43.8379 16.4156 44.0007 16.0179C44.1634 15.6199 44.2357 14.9511 44.2357 14.0472V10.1963C44.2357 9.31045 44.1633 8.65959 44.0007 8.26183C43.8379 7.84614 43.5667 7.64717 43.1871 7.64717ZM75.0781 8.0089C74.8578 8.21234 74.701 8.46321 74.6078 8.77683L74.59 8.84045V15.8549C74.8141 16.2346 75.1324 16.4877 75.6928 16.5058C75.982 16.5058 76.217 16.3973 76.3979 16.1804C76.5786 15.9636 76.7051 15.6019 76.7774 15.0956C76.847 14.6098 76.8831 13.9406 76.8859 13.088V11.3715C76.8859 10.3953 76.8497 9.65407 76.7955 9.12976C76.7231 8.60545 76.6329 8.22579 76.4702 8.0089C76.1555 7.55683 75.4759 7.56234 75.0781 8.0089ZM84.6419 7.59303C84.3344 7.61108 84.1174 7.70148 83.9909 7.86424C83.8464 8.04493 83.7559 8.31614 83.7017 8.7139C83.6485 9.10355 83.6302 10.4656 83.6293 10.5201V11.4077H85.6541V10.6249V10.6399C85.6529 10.9136 85.6472 10.4811 85.6348 9.95028L85.6331 9.8789C85.6217 9.41234 85.6052 8.89217 85.5819 8.7139C85.5276 8.29803 85.4371 8.00872 85.2926 7.84614C85.1479 7.68338 84.931 7.59303 84.6417 7.59303" fill="#282828"/>
</g>
<defs>
<clipPath id="clip0_646_861">
<rect width="88.2759" height="20" fill="white"/>
</clipPath>
</defs>
</svg>
