<svg width="97" height="96" viewBox="0 0 97 96" fill="none" xmlns="http://www.w3.org/2000/svg">
<rect x="1.5" y="1" width="94" height="94" rx="47" stroke="#141414" stroke-width="2"/>
<g clip-path="url(#clip0_3_3945)">
<path d="M70.9 20H26.1C23.02 20 20.528 22.52 20.528 25.6L20.5 76L31.7 64.8H70.9C73.98 64.8 76.5 62.28 76.5 59.2V25.6C76.5 22.52 73.98 20 70.9 20ZM70.9 59.2H29.376L27.724 60.852L26.1 62.476V25.6H70.9V59.2ZM44.3 53.6H65.3V48H49.9L44.3 53.6ZM55.108 37.164C55.668 36.604 55.668 35.736 55.108 35.176L50.152 30.22C49.592 29.66 48.724 29.66 48.164 30.22L31.7 46.684V53.6H38.616L55.108 37.164Z" fill="#141414"/>
</g>
<defs>
<clipPath id="clip0_3_3945">
<rect width="56" height="56" fill="white" transform="translate(20.5 20)"/>
</clipPath>
</defs>
</svg>
