<svg width="97" height="96" viewBox="0 0 97 96" fill="none" xmlns="http://www.w3.org/2000/svg">
<rect x="1.5" y="1" width="94" height="94" rx="47" stroke="#141414" stroke-width="2"/>
<g clip-path="url(#clip0_3_4016)">
<path d="M49.7145 22.2085C49.9793 21.7396 50.382 21.3635 50.8679 21.1313C51.3537 20.899 51.8993 20.8217 52.4305 20.91L53.2635 21.05C54.8437 21.3133 56.3505 21.9074 57.6852 22.7935C59.0199 23.6795 60.1524 24.8374 61.0085 26.1915C61.8646 27.5456 62.4251 29.0652 62.6531 30.6509C62.8812 32.2366 62.7718 33.8526 62.332 35.393L60.729 41H63.0565C64.8246 41 66.5683 41.4121 68.1493 42.2037C69.7303 42.9953 71.105 44.1445 72.1643 45.5602C73.2235 46.9758 73.9382 48.6189 74.2516 50.359C74.565 52.0991 74.4684 53.8883 73.9695 55.5845L69.997 69.091C69.4103 71.0858 68.1933 72.8369 66.5283 74.0824C64.8633 75.3278 62.8398 76.0006 60.7605 76H43.551C40.8089 75.9996 38.1358 75.1404 35.907 73.543C35.3365 74.306 34.5959 74.9253 33.7441 75.3518C32.8922 75.7784 31.9527 76.0003 31 76H26.625C25.0005 76 23.4426 75.3547 22.294 74.2061C21.1453 73.0574 20.5 71.4995 20.5 69.875V47.125C20.5 43.744 23.244 41 26.625 41H38.5845C38.7391 40.9996 38.8908 40.9583 39.0242 40.8802C39.1576 40.8021 39.2679 40.6901 39.344 40.5555L49.7145 22.2085ZM37.125 67.7715L38.511 68.9265C39.925 70.106 41.71 70.75 43.551 70.75H60.7605C61.7058 70.7507 62.6258 70.4452 63.383 69.8792C64.1401 69.3133 64.6936 68.5173 64.9605 67.6105L68.933 54.104C69.2018 53.1906 69.2539 52.2271 69.0852 51.29C68.9165 50.3529 68.5317 49.468 67.9613 48.7056C67.3909 47.9433 66.6506 47.3244 65.7991 46.8981C64.9477 46.4718 64.0087 46.2499 63.0565 46.25H57.25C56.8438 46.25 56.4431 46.1556 56.0795 45.9744C55.7159 45.7931 55.3994 45.53 55.1548 45.2056C54.9101 44.8813 54.7441 44.5046 54.6698 44.1052C54.5955 43.7058 54.6149 43.2947 54.7265 42.904L57.285 33.951C57.718 32.4349 57.5496 30.8101 56.8149 29.415C56.0802 28.0198 54.8357 26.9618 53.3405 26.461L43.915 43.1385C43.3815 44.0826 42.6069 44.8681 41.6703 45.4148C40.7338 45.9615 39.6689 46.2497 38.5845 46.25H37.125V67.7715ZM31.875 46.25H26.625C26.3929 46.25 26.1704 46.3422 26.0063 46.5063C25.8422 46.6704 25.75 46.893 25.75 47.125V69.875C25.75 70.358 26.142 70.75 26.625 70.75H31C31.2321 70.75 31.4546 70.6579 31.6187 70.4938C31.7828 70.3297 31.875 70.1071 31.875 69.875V46.25Z" fill="#141414"/>
</g>
<defs>
<clipPath id="clip0_3_4016">
<rect width="56" height="56" fill="white" transform="translate(20.5 20)"/>
</clipPath>
</defs>
</svg>
