<svg width="97" height="96" viewBox="0 0 97 96" fill="none" xmlns="http://www.w3.org/2000/svg">
<rect x="1.5" y="1" width="94" height="94" rx="47" stroke="#141414" stroke-width="2"/>
<path d="M25.2629 68.3637C23.9052 68.3637 22.7724 67.8812 21.8646 66.9162C20.9568 65.9512 20.502 64.746 20.5 63.3006V29.5631C20.5 28.1198 20.9549 26.9156 21.8646 25.9506C22.7744 24.9856 23.9062 24.5021 25.26 24.5L28.5758 31.5495C28.9196 32.2806 29.4109 32.855 30.0495 33.2727C30.6881 33.6905 31.3758 33.8994 32.1126 33.8994C33.5863 33.8994 34.7161 33.2331 35.5021 31.9004C36.2881 30.5678 36.3372 29.1976 35.6495 27.7898L34.108 24.5H40.0027L43.3185 31.5495C43.6624 32.2806 44.1536 32.855 44.7922 33.2727C45.4308 33.6905 46.1185 33.8994 46.8554 33.8994C48.3291 33.8994 49.4589 33.2331 50.2448 31.9004C51.0308 30.5678 51.0799 29.1976 50.3922 27.7898L48.8419 24.5H54.7366L58.0524 31.5495C58.3963 32.2806 58.8875 32.855 59.5261 33.2727C60.1647 33.6905 60.8524 33.8994 61.5893 33.8994C63.063 33.8994 64.1928 33.2331 64.9787 31.9004C65.7647 30.5678 65.8138 29.1976 65.1261 27.7898L63.5787 24.5H68.7926C70.1484 24.5 71.2812 24.9835 72.1909 25.9506C73.1007 26.9177 73.5546 28.1219 73.5526 29.5631V37.2142C73.5526 37.8617 73.3267 38.4246 72.8747 38.903C72.4228 39.3813 71.8923 39.6215 71.2832 39.6236H70.6053V37.0325H23.4474V63.3037C23.4474 63.8656 23.6173 64.3272 23.9573 64.6886C24.2972 65.0499 24.7324 65.2306 25.2629 65.2306H45.0987C45.5192 65.2306 45.87 65.38 46.1509 65.6787C46.4319 65.9773 46.5724 66.3502 46.5724 66.7972C46.5724 67.2442 46.4319 67.617 46.1509 67.9157C45.87 68.2144 45.5192 68.3637 45.0987 68.3637H25.2629ZM53.6019 68.9653V65.6066C53.6019 65.2703 53.6569 64.957 53.7669 64.6667C53.877 64.3763 54.0597 64.0933 54.3152 63.8176L69.3173 47.9483C69.61 47.6392 69.9126 47.4303 70.2251 47.3217C70.5394 47.2131 70.8538 47.1588 71.1682 47.1588C71.4924 47.1588 71.8206 47.2256 72.1526 47.3593C72.4867 47.495 72.7794 47.6977 73.0309 47.9671L75.7573 50.9248C75.9989 51.2339 76.1827 51.5556 76.3084 51.8898C76.4361 52.2219 76.5 52.555 76.5 52.8892C76.5 53.2234 76.4401 53.5597 76.3202 53.8981C76.2003 54.2365 76.0127 54.5602 75.7573 54.8694L60.8288 70.7418C60.5714 71.0133 60.3062 71.2076 60.0331 71.3245C59.7599 71.4415 59.4642 71.5 59.1459 71.5H55.9834C55.2996 71.5 54.7317 71.2598 54.2798 70.7794C53.8279 70.299 53.6019 69.6953 53.6019 68.9684M56.2103 68.7303H59.0103L69.2288 57.8458L67.8436 56.3576L66.5025 54.8286L56.2103 65.7538V68.7303ZM67.8436 56.3576L66.5025 54.8286L69.2288 57.8458L67.8436 56.3576Z" fill="black"/>
</svg>
