<svg width="24" height="24" viewBox="0 0 24 24" fill="none" xmlns="http://www.w3.org/2000/svg">
<g clip-path="url(#clip0_3_3941)">
<path d="M12.5205 0.946481C12.634 0.745524 12.8066 0.58434 13.0148 0.484789C13.223 0.385239 13.4568 0.35214 13.6845 0.389981L14.0415 0.449981C14.7187 0.56282 15.3645 0.817439 15.9365 1.19716C16.5085 1.57689 16.9939 2.07316 17.3608 2.65347C17.7277 3.23378 17.9679 3.88505 18.0656 4.56464C18.1634 5.24422 18.1165 5.93678 17.928 6.59698L17.241 8.99998H18.2385C18.9963 8.99997 19.7436 9.1766 20.4211 9.51585C21.0987 9.85509 21.6879 10.3476 22.1418 10.9543C22.5958 11.561 22.9021 12.2652 23.0364 13.011C23.1707 13.7567 23.1293 14.5235 22.9155 15.2505L21.213 21.039C20.9615 21.8939 20.44 22.6444 19.7264 23.1781C19.0129 23.7119 18.1456 24.0002 17.2545 24H9.879C8.70381 23.9998 7.55819 23.6316 6.603 22.947C6.3585 23.274 6.0411 23.5394 5.67603 23.7222C5.31096 23.905 4.90828 24.0001 4.5 24H2.625C1.92881 24 1.26113 23.7234 0.768845 23.2311C0.276562 22.7389 0 22.0712 0 21.375L0 11.625C0 10.176 1.176 8.99998 2.625 8.99998H7.7505C7.81675 8.99981 7.88177 8.98209 7.93894 8.94863C7.99612 8.91517 8.04341 8.86716 8.076 8.80948L12.5205 0.946481ZM7.125 20.4735L7.719 20.9685C8.325 21.474 9.09 21.75 9.879 21.75H17.2545C17.6596 21.7503 18.0539 21.6193 18.3784 21.3768C18.7029 21.1342 18.9401 20.7931 19.0545 20.4045L20.757 14.616C20.8722 14.2245 20.8945 13.8116 20.8222 13.41C20.7499 13.0083 20.585 12.6291 20.3406 12.3024C20.0961 11.9756 19.7788 11.7104 19.4139 11.5277C19.049 11.345 18.6466 11.2499 18.2385 11.25H15.75C15.5759 11.2499 15.4042 11.2095 15.2484 11.1318C15.0925 11.0542 14.9569 10.9414 14.852 10.8024C14.7472 10.6634 14.6761 10.5019 14.6442 10.3308C14.6124 10.1596 14.6207 9.98339 14.6685 9.81598L15.765 5.97898C15.9506 5.32919 15.8784 4.63287 15.5635 4.03495C15.2486 3.43702 14.7153 2.98357 14.0745 2.76898L10.035 9.91648C9.80634 10.3211 9.47437 10.6577 9.073 10.892C8.67163 11.1263 8.21525 11.2498 7.7505 11.25H7.125V20.4735ZM4.875 11.25H2.625C2.52554 11.25 2.43016 11.2895 2.35984 11.3598C2.28951 11.4301 2.25 11.5255 2.25 11.625V21.375C2.25 21.582 2.418 21.75 2.625 21.75H4.5C4.59946 21.75 4.69484 21.7105 4.76516 21.6401C4.83549 21.5698 4.875 21.4744 4.875 21.375V11.25Z" fill="#D9D9D9"/>
</g>
<defs>
<clipPath id="clip0_3_3941">
<rect width="24" height="24" fill="white"/>
</clipPath>
</defs>
</svg>
