<svg width="241" height="240" viewBox="0 0 241 240" fill="none" xmlns="http://www.w3.org/2000/svg">
<g clip-path="url(#clip0_64_882)">
<rect x="0.5" width="240" height="240" rx="10" fill="#D9D9D9"/>
<g clip-path="url(#clip1_64_882)">
<path d="M120.5 120C127.127 120 132.5 114.627 132.5 108C132.5 101.373 127.127 96 120.5 96C113.873 96 108.5 101.373 108.5 108C108.5 114.627 113.873 120 120.5 120Z" fill="#5E5E5E"/>
<path d="M152.5 76H139.82L134.86 70.6C133.38 68.96 131.22 68 128.98 68H112.02C109.78 68 107.62 68.96 106.1 70.6L101.18 76H88.5C84.1 76 80.5 79.6 80.5 84V132C80.5 136.4 84.1 140 88.5 140H152.5C156.9 140 160.5 136.4 160.5 132V84C160.5 79.6 156.9 76 152.5 76ZM120.5 128C109.46 128 100.5 119.04 100.5 108C100.5 96.96 109.46 88 120.5 88C131.54 88 140.5 96.96 140.5 108C140.5 119.04 131.54 128 120.5 128Z" fill="#5E5E5E"/>
</g>
<path d="M63.8758 163.887C63.8758 166.953 65.907 170.098 68.368 171.309L67.4305 172.539C65.5164 171.533 63.9148 169.482 63.1531 167.07C62.3719 169.639 60.7313 171.826 58.7781 172.871L57.8016 171.641C60.3406 170.391 62.3523 167.051 62.3719 163.887V160.723H63.8758V163.887ZM71.493 159.219V166.27H74.4031V167.598H71.493V176.582H69.9695V159.219H71.493ZM80.7906 162.949C80.7906 165.293 82.6461 167.402 85.2438 168.223L84.4625 169.453C82.441 168.77 80.8297 167.344 80.0484 165.508C79.2867 167.49 77.6559 169.053 75.5953 169.805L74.7945 168.574C77.3922 167.656 79.2477 165.41 79.2477 162.949V161.934H75.1852V160.684H84.7945V161.934H80.7906V162.949ZM88.8766 159.238V171.973H87.3531V159.238H88.8766ZM89.4234 174.922V176.211H77.6656V170.762H79.1891V174.922H89.4234ZM96.7094 160.195L92.1391 177.129H90.6156L95.1664 160.195H96.7094ZM112.745 167.812V169.043H96.9055V167.812H104.073V165.781H98.9172V160.039H110.773V161.27H100.421V164.531H110.89V165.781H105.558V167.812H112.745ZM104.816 170.312C108.546 170.312 110.773 171.445 110.792 173.438C110.773 175.449 108.546 176.562 104.816 176.582C101.066 176.562 98.8195 175.449 98.8195 173.438C98.8195 171.445 101.066 170.312 104.816 170.312ZM104.816 171.523C102.023 171.523 100.363 172.246 100.382 173.438C100.363 174.648 102.023 175.352 104.816 175.352C107.57 175.352 109.249 174.648 109.249 173.438C109.249 172.246 107.57 171.523 104.816 171.523ZM118.176 160.273C119.641 160.264 120.891 160.811 121.691 161.738H126.242V159.219H127.785V169.512H126.242V167.031H121.711C120.891 167.959 119.641 168.506 118.176 168.496C115.578 168.516 113.664 166.816 113.664 164.395C113.664 161.953 115.578 160.254 118.176 160.273ZM118.176 161.602C116.398 161.582 115.129 162.754 115.129 164.395C115.129 166.016 116.398 167.188 118.176 167.188C119.895 167.188 121.184 166.016 121.184 164.395C121.184 162.754 119.895 161.582 118.176 161.602ZM122.023 169.922C125.617 169.922 127.844 171.133 127.844 173.223C127.844 175.332 125.617 176.543 122.023 176.543C118.41 176.543 116.203 175.332 116.203 173.223C116.203 171.133 118.41 169.922 122.023 169.922ZM122.023 171.113C119.367 171.113 117.707 171.914 117.707 173.223C117.707 174.531 119.367 175.312 122.023 175.312C124.699 175.312 126.34 174.531 126.34 173.223C126.34 171.914 124.699 171.113 122.023 171.113ZM122.434 162.988C122.58 163.418 122.668 163.887 122.668 164.395C122.668 164.883 122.58 165.342 122.434 165.762H126.242V162.988H122.434ZM135.677 162.031C135.677 164.395 137.473 166.562 139.993 167.422L139.153 168.633C137.229 167.93 135.716 166.494 134.954 164.688C134.212 166.729 132.669 168.34 130.637 169.121L129.817 167.891C132.415 166.914 134.153 164.59 134.173 161.914V160.117H135.677V162.031ZM143.45 159.219V163.75H146.067V165.039H143.45V169.785H141.927V159.219H143.45ZM137.884 170.234C141.458 170.234 143.606 171.387 143.606 173.379C143.606 175.41 141.458 176.543 137.884 176.543C134.309 176.543 132.122 175.41 132.122 173.379C132.122 171.387 134.309 170.234 137.884 170.234ZM137.884 171.465C135.266 171.465 133.645 172.188 133.665 173.379C133.645 174.609 135.266 175.312 137.884 175.332C140.52 175.312 142.122 174.609 142.122 173.379C142.122 172.188 140.52 171.465 137.884 171.465ZM166.401 169.727V171.016H159.233V176.621H157.729V171.016H150.58V169.727H166.401ZM159.252 162.656C159.252 164.824 162.28 166.719 165.385 167.148L164.819 168.379C162.133 167.969 159.604 166.621 158.51 164.727C157.397 166.641 154.829 167.969 152.143 168.379L151.577 167.148C154.663 166.719 157.729 164.844 157.729 162.656V162.637H152.123V161.387H157.729V159.219H159.233V161.387H164.877V162.637H159.252V162.656ZM180.503 159.219V166.289H183.316V167.578H180.503V176.582H178.98V159.219H180.503ZM176.011 161.094C176.011 166.016 173.706 170.488 168.042 173.281L167.183 172.07C171.675 169.834 174.116 166.494 174.468 162.383H167.984V161.094H176.011Z" fill="#9D9D9D"/>
</g>
<defs>
<clipPath id="clip0_64_882">
<rect x="0.5" width="240" height="240" rx="10" fill="white"/>
</clipPath>
<clipPath id="clip1_64_882">
<rect width="96" height="96" fill="white" transform="translate(72.5 60)"/>
</clipPath>
</defs>
</svg>
