<svg width="234" height="83" viewBox="0 0 234 83" fill="none" xmlns="http://www.w3.org/2000/svg">
<g filter="url(#filter0_d_3_2322)">
<path d="M51.51 33.856C51.51 36.2827 51.1367 38.616 50.39 40.856C49.6434 43.096 48.5234 45.0747 47.03 46.792C45.574 48.5093 43.7447 49.8907 41.542 50.936C39.3767 51.944 36.8567 52.448 33.982 52.448H19.926V66.336H6.15003V15.264H33.982C36.8567 15.264 39.3767 15.7867 41.542 16.832C43.7447 17.84 45.574 19.2027 47.03 20.92C48.5234 22.6373 49.6434 24.616 50.39 26.856C51.1367 29.096 51.51 31.4293 51.51 33.856ZM30.734 41.136C32.862 41.136 34.5607 40.4827 35.83 39.176C37.0994 37.832 37.734 36.0587 37.734 33.856C37.734 31.6533 37.0994 29.8987 35.83 28.592C34.5607 27.248 32.862 26.576 30.734 26.576H19.926V41.136H30.734ZM55.2069 66.336V15.264H68.9829V66.336H55.2069ZM126.809 46.008C126.361 49.144 125.39 52.0373 123.897 54.688C122.441 57.3013 120.537 59.56 118.185 61.464C115.87 63.368 113.201 64.8427 110.177 65.888C107.153 66.9707 103.886 67.512 100.377 67.512C96.3819 67.512 92.7419 66.8213 89.4566 65.44C86.1713 64.096 83.3339 62.2293 80.9446 59.84C78.5926 57.4507 76.7633 54.632 75.4566 51.384C74.1499 48.0987 73.4966 44.5707 73.4966 40.8C73.4966 37.0293 74.1499 33.52 75.4566 30.272C76.7633 27.024 78.5926 24.2053 80.9446 21.816C83.3339 19.4267 86.1713 17.56 89.4566 16.216C92.7419 14.8347 96.3819 14.144 100.377 14.144C103.961 14.144 107.283 14.704 110.345 15.824C113.443 16.944 116.15 18.4933 118.465 20.472C120.817 22.4507 122.721 24.8027 124.177 27.528C125.633 30.216 126.547 33.1653 126.921 36.376H112.641C112.417 34.808 111.969 33.352 111.297 32.008C110.625 30.664 109.747 29.5067 108.665 28.536C107.619 27.5653 106.387 26.8187 104.969 26.296C103.587 25.736 102.057 25.456 100.377 25.456C98.3233 25.456 96.4566 25.8667 94.7766 26.688C93.0966 27.472 91.6593 28.5547 90.4646 29.936C89.2699 31.3173 88.3366 32.9413 87.6646 34.808C87.0299 36.6747 86.7126 38.672 86.7126 40.8C86.7126 42.9653 87.0299 44.9813 87.6646 46.848C88.3366 48.7147 89.2699 50.3387 90.4646 51.72C91.6593 53.1013 93.0966 54.2027 94.7766 55.024C96.4566 55.808 98.3233 56.2 100.377 56.2C101.982 56.2 103.457 55.9573 104.801 55.472C106.182 54.9493 107.395 54.24 108.441 53.344C109.486 52.448 110.345 51.384 111.017 50.152C111.726 48.8827 112.23 47.5013 112.529 46.008H126.809ZM130.625 66.336V15.264H144.401V36.936L159.521 15.264H174.641L155.097 41.808L175.761 66.336H160.641L144.401 47.576V66.336H130.625ZM195.997 66.336V49.592C192.189 48.3227 189.053 46.0267 186.589 42.704C184.162 39.3813 182.165 35.1627 180.597 30.048L176.117 15.264H190.453L194.373 28.928C194.746 30.2347 195.175 31.504 195.661 32.736C196.183 33.9307 196.781 35.0133 197.453 35.984C198.162 36.9173 198.965 37.6827 199.861 38.28C200.757 38.84 201.765 39.12 202.885 39.12C204.005 39.12 205.013 38.84 205.909 38.28C206.805 37.6827 207.589 36.9173 208.261 35.984C208.97 35.0133 209.567 33.9307 210.053 32.736C210.575 31.504 211.023 30.2347 211.397 28.928L215.317 15.264H229.653L225.173 30.048C223.605 35.1627 221.589 39.3813 219.125 42.704C216.698 46.0267 213.581 48.3227 209.773 49.592V66.336H195.997Z" fill="#FF084A"/>
<path d="M50.51 34.856C50.51 37.2827 50.1367 39.616 49.39 41.856C48.6434 44.096 47.5234 46.0747 46.03 47.792C44.574 49.5093 42.7447 50.8907 40.542 51.936C38.3767 52.944 35.8567 53.448 32.982 53.448H18.926V67.336H5.15003V16.264H32.982C35.8567 16.264 38.3767 16.7867 40.542 17.832C42.7447 18.84 44.574 20.2027 46.03 21.92C47.5234 23.6373 48.6434 25.616 49.39 27.856C50.1367 30.096 50.51 32.4293 50.51 34.856ZM29.734 42.136C31.862 42.136 33.5607 41.4827 34.83 40.176C36.0994 38.832 36.734 37.0587 36.734 34.856C36.734 32.6533 36.0994 30.8987 34.83 29.592C33.5607 28.248 31.862 27.576 29.734 27.576H18.926V42.136H29.734ZM54.2069 67.336V16.264H67.9829V67.336H54.2069ZM125.809 47.008C125.361 50.144 124.39 53.0373 122.897 55.688C121.441 58.3013 119.537 60.56 117.185 62.464C114.87 64.368 112.201 65.8427 109.177 66.888C106.153 67.9707 102.886 68.512 99.3766 68.512C95.3819 68.512 91.7419 67.8213 88.4566 66.44C85.1713 65.096 82.3339 63.2293 79.9446 60.84C77.5926 58.4507 75.7633 55.632 74.4566 52.384C73.1499 49.0987 72.4966 45.5707 72.4966 41.8C72.4966 38.0293 73.1499 34.52 74.4566 31.272C75.7633 28.024 77.5926 25.2053 79.9446 22.816C82.3339 20.4267 85.1713 18.56 88.4566 17.216C91.7419 15.8347 95.3819 15.144 99.3766 15.144C102.961 15.144 106.283 15.704 109.345 16.824C112.443 17.944 115.15 19.4933 117.465 21.472C119.817 23.4507 121.721 25.8027 123.177 28.528C124.633 31.216 125.547 34.1653 125.921 37.376H111.641C111.417 35.808 110.969 34.352 110.297 33.008C109.625 31.664 108.747 30.5067 107.665 29.536C106.619 28.5653 105.387 27.8187 103.969 27.296C102.587 26.736 101.057 26.456 99.3766 26.456C97.3233 26.456 95.4566 26.8667 93.7766 27.688C92.0966 28.472 90.6593 29.5547 89.4646 30.936C88.2699 32.3173 87.3366 33.9413 86.6646 35.808C86.0299 37.6747 85.7126 39.672 85.7126 41.8C85.7126 43.9653 86.0299 45.9813 86.6646 47.848C87.3366 49.7147 88.2699 51.3387 89.4646 52.72C90.6593 54.1013 92.0966 55.2027 93.7766 56.024C95.4566 56.808 97.3233 57.2 99.3766 57.2C100.982 57.2 102.457 56.9573 103.801 56.472C105.182 55.9493 106.395 55.24 107.441 54.344C108.486 53.448 109.345 52.384 110.017 51.152C110.726 49.8827 111.23 48.5013 111.529 47.008H125.809ZM129.625 67.336V16.264H143.401V37.936L158.521 16.264H173.641L154.097 42.808L174.761 67.336H159.641L143.401 48.576V67.336H129.625ZM194.997 67.336V50.592C191.189 49.3227 188.053 47.0267 185.589 43.704C183.162 40.3813 181.165 36.1627 179.597 31.048L175.117 16.264H189.453L193.373 29.928C193.746 31.2347 194.175 32.504 194.661 33.736C195.183 34.9307 195.781 36.0133 196.453 36.984C197.162 37.9173 197.965 38.6827 198.861 39.28C199.757 39.84 200.765 40.12 201.885 40.12C203.005 40.12 204.013 39.84 204.909 39.28C205.805 38.6827 206.589 37.9173 207.261 36.984C207.97 36.0133 208.567 34.9307 209.053 33.736C209.575 32.504 210.023 31.2347 210.397 29.928L214.317 16.264H228.653L224.173 31.048C222.605 36.1627 220.589 40.3813 218.125 43.704C215.698 47.0267 212.581 49.3227 208.773 50.592V67.336H194.997Z" fill="white"/>
<path d="M49.51 35.856C49.51 38.2827 49.1367 40.616 48.39 42.856C47.6434 45.096 46.5234 47.0747 45.03 48.792C43.574 50.5093 41.7447 51.8907 39.542 52.936C37.3767 53.944 34.8567 54.448 31.982 54.448H17.926V68.336H4.15003V17.264H31.982C34.8567 17.264 37.3767 17.7867 39.542 18.832C41.7447 19.84 43.574 21.2027 45.03 22.92C46.5234 24.6373 47.6434 26.616 48.39 28.856C49.1367 31.096 49.51 33.4293 49.51 35.856ZM28.734 43.136C30.862 43.136 32.5607 42.4827 33.83 41.176C35.0994 39.832 35.734 38.0587 35.734 35.856C35.734 33.6533 35.0994 31.8987 33.83 30.592C32.5607 29.248 30.862 28.576 28.734 28.576H17.926V43.136H28.734ZM53.2069 68.336V17.264H66.9829V68.336H53.2069ZM124.809 48.008C124.361 51.144 123.39 54.0373 121.897 56.688C120.441 59.3013 118.537 61.56 116.185 63.464C113.87 65.368 111.201 66.8427 108.177 67.888C105.153 68.9707 101.886 69.512 98.3766 69.512C94.3819 69.512 90.7419 68.8213 87.4566 67.44C84.1713 66.096 81.3339 64.2293 78.9446 61.84C76.5926 59.4507 74.7633 56.632 73.4566 53.384C72.1499 50.0987 71.4966 46.5707 71.4966 42.8C71.4966 39.0293 72.1499 35.52 73.4566 32.272C74.7633 29.024 76.5926 26.2053 78.9446 23.816C81.3339 21.4267 84.1713 19.56 87.4566 18.216C90.7419 16.8347 94.3819 16.144 98.3766 16.144C101.961 16.144 105.283 16.704 108.345 17.824C111.443 18.944 114.15 20.4933 116.465 22.472C118.817 24.4507 120.721 26.8027 122.177 29.528C123.633 32.216 124.547 35.1653 124.921 38.376H110.641C110.417 36.808 109.969 35.352 109.297 34.008C108.625 32.664 107.747 31.5067 106.665 30.536C105.619 29.5653 104.387 28.8187 102.969 28.296C101.587 27.736 100.057 27.456 98.3766 27.456C96.3233 27.456 94.4566 27.8667 92.7766 28.688C91.0966 29.472 89.6593 30.5547 88.4646 31.936C87.2699 33.3173 86.3366 34.9413 85.6646 36.808C85.0299 38.6747 84.7126 40.672 84.7126 42.8C84.7126 44.9653 85.0299 46.9813 85.6646 48.848C86.3366 50.7147 87.2699 52.3387 88.4646 53.72C89.6593 55.1013 91.0966 56.2027 92.7766 57.024C94.4566 57.808 96.3233 58.2 98.3766 58.2C99.9819 58.2 101.457 57.9573 102.801 57.472C104.182 56.9493 105.395 56.24 106.441 55.344C107.486 54.448 108.345 53.384 109.017 52.152C109.726 50.8827 110.23 49.5013 110.529 48.008H124.809ZM128.625 68.336V17.264H142.401V38.936L157.521 17.264H172.641L153.097 43.808L173.761 68.336H158.641L142.401 49.576V68.336H128.625ZM193.997 68.336V51.592C190.189 50.3227 187.053 48.0267 184.589 44.704C182.162 41.3813 180.165 37.1627 178.597 32.048L174.117 17.264H188.453L192.373 30.928C192.746 32.2347 193.175 33.504 193.661 34.736C194.183 35.9307 194.781 37.0133 195.453 37.984C196.162 38.9173 196.965 39.6827 197.861 40.28C198.757 40.84 199.765 41.12 200.885 41.12C202.005 41.12 203.013 40.84 203.909 40.28C204.805 39.6827 205.589 38.9173 206.261 37.984C206.97 37.0133 207.567 35.9307 208.053 34.736C208.575 33.504 209.023 32.2347 209.397 30.928L213.317 17.264H227.653L223.173 32.048C221.605 37.1627 219.589 41.3813 217.125 44.704C214.698 48.0267 211.581 50.3227 207.773 51.592V68.336H193.997Z" fill="#FF084A"/>
</g>
<defs>
<filter id="filter0_d_3_2322" x="-4" y="0" width="239" height="91" filterUnits="userSpaceOnUse" color-interpolation-filters="sRGB">
<feFlood flood-opacity="0" result="BackgroundImageFix"/>
<feColorMatrix in="SourceAlpha" type="matrix" values="0 0 0 0 0 0 0 0 0 0 0 0 0 0 0 0 0 0 127 0" result="hardAlpha"/>
<feOffset dy="4"/>
<feGaussianBlur stdDeviation="2"/>
<feComposite in2="hardAlpha" operator="out"/>
<feColorMatrix type="matrix" values="0 0 0 0 0 0 0 0 0 0 0 0 0 0 0 0 0 0 0.25 0"/>
<feBlend mode="normal" in2="BackgroundImageFix" result="effect1_dropShadow_3_2322"/>
<feBlend mode="normal" in="SourceGraphic" in2="effect1_dropShadow_3_2322" result="shape"/>
</filter>
</defs>
</svg>
