<svg width="48" height="49" viewBox="0 0 48 49" fill="none" xmlns="http://www.w3.org/2000/svg">
<g clip-path="url(#clip0_392_890)">
<path d="M6 42.5C6 39.7162 6.72634 36.9805 8.10726 34.5633C9.48818 32.1461 11.4759 30.131 13.874 28.7171C16.2721 27.3033 18.9976 26.5396 21.7812 26.5015C24.5648 26.4634 27.3101 27.1523 29.746 28.5" stroke="white" stroke-width="4" stroke-linecap="round" stroke-linejoin="round"/>
<path d="M22 26.5C27.5228 26.5 32 22.0228 32 16.5C32 10.9772 27.5228 6.5 22 6.5C16.4772 6.5 12 10.9772 12 16.5C12 22.0228 16.4772 26.5 22 26.5Z" stroke="white" stroke-width="4" stroke-linecap="round" stroke-linejoin="round"/>
<path fill-rule="evenodd" clip-rule="evenodd" d="M24 36.0015C23.9996 35.6388 24.1307 35.2882 24.3691 35.0146C24.6074 34.7411 24.9367 34.5632 25.2961 34.5139C25.6555 34.4646 26.0206 34.5472 26.3238 34.7465C26.627 34.9457 26.8477 35.2481 26.945 35.5975C28.892 42.0995 38.103 42.1005 40.054 35.6025C40.1088 35.4125 40.2007 35.2352 40.3243 35.0808C40.4479 34.9264 40.6009 34.798 40.7743 34.7029C40.9478 34.6078 41.1383 34.548 41.335 34.5269C41.5317 34.5058 41.7305 34.5237 41.9202 34.5798C42.1099 34.6358 42.2867 34.7288 42.4403 34.8534C42.5939 34.9781 42.7213 35.1318 42.8152 35.3059C42.9092 35.4799 42.9678 35.6709 42.9876 35.8676C43.0075 36.0644 42.9883 36.2632 42.931 36.4525C42.5893 37.6202 42.0395 38.7164 41.308 39.6885L42.268 40.6485C42.4112 40.787 42.5254 40.9526 42.6039 41.1356C42.6824 41.3186 42.7237 41.5155 42.7254 41.7147C42.727 41.9138 42.689 42.1113 42.6134 42.2956C42.5379 42.4799 42.4265 42.6474 42.2856 42.7881C42.1447 42.9289 41.9771 43.0402 41.7928 43.1155C41.6084 43.1909 41.4108 43.2287 41.2117 43.2269C41.0125 43.2251 40.8157 43.1836 40.6327 43.1049C40.4498 43.0262 40.2843 42.9119 40.146 42.7685L39.136 41.7585C38.611 42.1181 38.0516 42.4246 37.466 42.6735L37.709 43.5795C37.8012 43.9601 37.7409 44.3616 37.541 44.6984C37.3411 45.0351 37.0175 45.2803 36.6393 45.3816C36.261 45.4829 35.8582 45.4323 35.5167 45.2406C35.1753 45.0489 34.9224 44.7312 34.812 44.3555L34.561 43.4205C33.856 43.4935 33.144 43.4935 32.439 43.4205L32.189 44.3555C32.0861 44.7398 31.8347 45.0675 31.4902 45.2665C31.1457 45.4655 30.7363 45.5195 30.352 45.4165C29.9677 45.3136 29.64 45.0623 29.441 44.7178C29.2421 44.3733 29.1881 43.9638 29.291 43.5795L29.533 42.6725C28.9478 42.4239 28.3887 42.1177 27.864 41.7585L26.854 42.7685C26.7157 42.9119 26.5502 43.0262 26.3673 43.1049C26.1843 43.1836 25.9875 43.2251 25.7883 43.2269C25.5892 43.2287 25.3916 43.1909 25.2072 43.1155C25.0229 43.0402 24.8553 42.9289 24.7144 42.7881C24.5735 42.6474 24.4621 42.4799 24.3866 42.2956C24.311 42.1113 24.273 41.9138 24.2746 41.7147C24.2763 41.5155 24.3176 41.3186 24.3961 41.1356C24.4746 40.9526 24.5888 40.787 24.732 40.6485L25.692 39.6885C24.9622 38.718 24.4134 37.6238 24.072 36.4585C24.0245 36.3109 24.0002 36.1567 24 36.0015Z" fill="white"/>
</g>
<defs>
<clipPath id="clip0_392_890">
<rect width="48" height="48" fill="white" transform="translate(0 0.5)"/>
</clipPath>
</defs>
</svg>
