<svg width="48" height="48" viewBox="0 0 48 48" fill="none" xmlns="http://www.w3.org/2000/svg">
<path d="M24 4C35.046 4 44 12.954 44 24C44.0028 27.0028 43.3281 29.9676 42.0261 32.6734C40.724 35.3793 38.8283 37.7565 36.48 39.628L36.002 40H40C40.5098 40.0006 41.0001 40.1958 41.3707 40.5457C41.7414 40.8956 41.9645 41.3739 41.9943 41.8828C42.0242 42.3917 41.8587 42.8928 41.5315 43.2837C41.2043 43.6746 40.7402 43.9258 40.234 43.986L40 44H24C12.954 44 4 35.046 4 24C4 12.954 12.954 4 24 4ZM24 8C19.7565 8 15.6869 9.68571 12.6863 12.6863C9.68571 15.6869 8 19.7565 8 24C8 28.2435 9.68571 32.3131 12.6863 35.3137C15.6869 38.3143 19.7565 40 24 40C28.2435 40 32.3131 38.3143 35.3137 35.3137C38.3143 32.3131 40 28.2435 40 24C40 19.7565 38.3143 15.6869 35.3137 12.6863C32.3131 9.68571 28.2435 8 24 8ZM24 28C25.0609 28 26.0783 28.4214 26.8284 29.1716C27.5786 29.9217 28 30.9391 28 32C28 33.0609 27.5786 34.0783 26.8284 34.8284C26.0783 35.5786 25.0609 36 24 36C22.9391 36 21.9217 35.5786 21.1716 34.8284C20.4214 34.0783 20 33.0609 20 32C20 30.9391 20.4214 29.9217 21.1716 29.1716C21.9217 28.4214 22.9391 28 24 28ZM16 20C17.0609 20 18.0783 20.4214 18.8284 21.1716C19.5786 21.9217 20 22.9391 20 24C20 25.0609 19.5786 26.0783 18.8284 26.8284C18.0783 27.5786 17.0609 28 16 28C14.9391 28 13.9217 27.5786 13.1716 26.8284C12.4214 26.0783 12 25.0609 12 24C12 22.9391 12.4214 21.9217 13.1716 21.1716C13.9217 20.4214 14.9391 20 16 20ZM32 20C33.0609 20 34.0783 20.4214 34.8284 21.1716C35.5786 21.9217 36 22.9391 36 24C36 25.0609 35.5786 26.0783 34.8284 26.8284C34.0783 27.5786 33.0609 28 32 28C30.9391 28 29.9217 27.5786 29.1716 26.8284C28.4214 26.0783 28 25.0609 28 24C28 22.9391 28.4214 21.9217 29.1716 21.1716C29.9217 20.4214 30.9391 20 32 20ZM24 12C25.0609 12 26.0783 12.4214 26.8284 13.1716C27.5786 13.9217 28 14.9391 28 16C28 17.0609 27.5786 18.0783 26.8284 18.8284C26.0783 19.5786 25.0609 20 24 20C22.9391 20 21.9217 19.5786 21.1716 18.8284C20.4214 18.0783 20 17.0609 20 16C20 14.9391 20.4214 13.9217 21.1716 13.1716C21.9217 12.4214 22.9391 12 24 12Z" fill="white"/>
</svg>
