<svg width="48" height="48" viewBox="0 0 48 48" fill="none" xmlns="http://www.w3.org/2000/svg">
<path d="M30 18L34 6M14 18L18 6M2 18H46M6.8 6H41.2C41.8303 6 42.4545 6.12416 43.0369 6.36538C43.6192 6.6066 44.1484 6.96017 44.5941 7.40589C45.0398 7.85161 45.3934 8.38076 45.6346 8.96312C45.8758 9.54548 46 10.1697 46 10.8V37.2C46 38.473 45.4943 39.6939 44.5941 40.5941C43.6939 41.4943 42.473 42 41.2 42H6.8C5.52696 42 4.30606 41.4943 3.40589 40.5941C2.50571 39.6939 2 38.473 2 37.2V10.8C2 10.1697 2.12416 9.54548 2.36538 8.96312C2.6066 8.38076 2.96017 7.85161 3.40589 7.40589C4.30606 6.50571 5.52696 6 6.8 6Z" stroke="white" stroke-width="3" stroke-miterlimit="10" stroke-linecap="round" stroke-linejoin="round"/>
</svg>
