<svg width="48" height="48" viewBox="0 0 48 48" fill="none" xmlns="http://www.w3.org/2000/svg">
<path d="M25.1045 16C24.5741 16 24.0654 16.2107 23.6903 16.5858C23.3152 16.9609 23.1045 17.4696 23.1045 18C23.1045 18.5304 23.3152 19.0391 23.6903 19.4142C24.0654 19.7893 24.5741 20 25.1045 20H33.1045C33.6349 20 34.1436 19.7893 34.5187 19.4142C34.8938 19.0391 35.1045 18.5304 35.1045 18C35.1045 17.4696 34.8938 16.9609 34.5187 16.5858C34.1436 16.2107 33.6349 16 33.1045 16H25.1045ZM25.1045 34C24.5741 34 24.0654 34.2107 23.6903 34.5858C23.3152 34.9609 23.1045 35.4696 23.1045 36C23.1045 36.5304 23.3152 37.0391 23.6903 37.4142C24.0654 37.7893 24.5741 38 25.1045 38H33.1045C33.6349 38 34.1436 37.7893 34.5187 37.4142C34.8938 37.0391 35.1045 36.5304 35.1045 36C35.1045 35.4696 34.8938 34.9609 34.5187 34.5858C34.1436 34.2107 33.6349 34 33.1045 34H25.1045Z" fill="white" fill-opacity="0.5"/>
<path d="M25.1045 10C24.5741 10 24.0654 10.2107 23.6903 10.5858C23.3152 10.9609 23.1045 11.4696 23.1045 12C23.1045 12.5304 23.3152 13.0391 23.6903 13.4142C24.0654 13.7893 24.5741 14 25.1045 14H41.1045C41.6349 14 42.1436 13.7893 42.5187 13.4142C42.8938 13.0391 43.1045 12.5304 43.1045 12C43.1045 11.4696 42.8938 10.9609 42.5187 10.5858C42.1436 10.2107 41.6349 10 41.1045 10H25.1045ZM25.1045 28C24.5741 28 24.0654 28.2107 23.6903 28.5858C23.3152 28.9609 23.1045 29.4696 23.1045 30C23.1045 30.5304 23.3152 31.0391 23.6903 31.4142C24.0654 31.7893 24.5741 32 25.1045 32H41.1045C41.6349 32 42.1436 31.7893 42.5187 31.4142C42.8938 31.0391 43.1045 30.5304 43.1045 30C43.1045 29.4696 42.8938 28.9609 42.5187 28.5858C42.1436 28.2107 41.6349 28 41.1045 28H25.1045Z" fill="white" fill-opacity="0.8"/>
<path d="M6.89648 8.00391C6.36605 8.00391 5.85734 8.21462 5.48227 8.58969C5.1072 8.96477 4.89648 9.47347 4.89648 10.0039V20.0039C4.89648 20.5343 5.1072 21.043 5.48227 21.4181C5.85734 21.7932 6.36605 22.0039 6.89648 22.0039H16.8965C17.4269 22.0039 17.9356 21.7932 18.3107 21.4181C18.6858 21.043 18.8965 20.5343 18.8965 20.0039V10.0039C18.8965 9.47347 18.6858 8.96477 18.3107 8.58969C17.9356 8.21462 17.4269 8.00391 16.8965 8.00391H6.89648ZM6.89648 25.9959C6.36605 25.9959 5.85734 26.2066 5.48227 26.5817C5.1072 26.9568 4.89648 27.4655 4.89648 27.9959V37.9959C4.89648 38.5263 5.1072 39.035 5.48227 39.4101C5.85734 39.7852 6.36605 39.9959 6.89648 39.9959H16.8965C17.4269 39.9959 17.9356 39.7852 18.3107 39.4101C18.6858 39.035 18.8965 38.5263 18.8965 37.9959V27.9959C18.8965 27.4655 18.6858 26.9568 18.3107 26.5817C17.9356 26.2066 17.4269 25.9959 16.8965 25.9959H6.89648Z" fill="white"/>
</svg>
