<svg width="48" height="48" viewBox="0 0 48 48" fill="none" xmlns="http://www.w3.org/2000/svg">
<path d="M22 28H6M22 36H6" stroke="white" stroke-width="3" stroke-linecap="round"/>
<path d="M37.75 28.2362C41.058 30.1462 42.71 31.1022 42.954 32.4782C43.0148 32.8229 43.0148 33.1755 42.954 33.5202C42.712 34.9002 41.058 35.8542 37.75 37.7622C34.442 39.6722 32.79 40.6282 31.474 40.1502C31.1452 40.0301 30.8399 39.8535 30.572 39.6282C29.5 38.7282 29.5 36.8202 29.5 33.0002C29.5 29.1802 29.5 27.2702 30.572 26.3722C30.8401 26.1476 31.1453 25.9716 31.474 25.8522C32.788 25.3722 34.442 26.3282 37.75 28.2362Z" stroke="white" stroke-width="3"/>
<path d="M6 12H27M40 12H35.5M40 20H19M6 20H10.5" stroke="white" stroke-width="3" stroke-linecap="round"/>
</svg>
