<svg width="48" height="49" viewBox="0 0 48 49" fill="none" xmlns="http://www.w3.org/2000/svg">
<path d="M25.208 16.4961C24.6776 16.4961 24.1689 16.7068 23.7938 17.0819C23.4187 17.457 23.208 17.9657 23.208 18.4961C23.208 19.0265 23.4187 19.5352 23.7938 19.9103C24.1689 20.2854 24.6776 20.4961 25.208 20.4961H33.208C33.7384 20.4961 34.2472 20.2854 34.6222 19.9103C34.9973 19.5352 35.208 19.0265 35.208 18.4961C35.208 17.9657 34.9973 17.457 34.6222 17.0819C34.2472 16.7068 33.7384 16.4961 33.208 16.4961H25.208ZM25.208 34.4961C24.6776 34.4961 24.1689 34.7068 23.7938 35.0819C23.4187 35.457 23.208 35.9657 23.208 36.4961C23.208 37.0265 23.4187 37.5352 23.7938 37.9103C24.1689 38.2854 24.6776 38.4961 25.208 38.4961H33.208C33.7384 38.4961 34.2472 38.2854 34.6222 37.9103C34.9973 37.5352 35.208 37.0265 35.208 36.4961C35.208 35.9657 34.9973 35.457 34.6222 35.0819C34.2472 34.7068 33.7384 34.4961 33.208 34.4961H25.208Z" fill="white" fill-opacity="0.5"/>
<path d="M25.208 10.4961C24.6776 10.4961 24.1689 10.7068 23.7938 11.0819C23.4187 11.457 23.208 11.9657 23.208 12.4961C23.208 13.0265 23.4187 13.5352 23.7938 13.9103C24.1689 14.2854 24.6776 14.4961 25.208 14.4961H41.208C41.7384 14.4961 42.2472 14.2854 42.6222 13.9103C42.9973 13.5352 43.208 13.0265 43.208 12.4961C43.208 11.9657 42.9973 11.457 42.6222 11.0819C42.2472 10.7068 41.7384 10.4961 41.208 10.4961H25.208ZM25.208 28.4961C24.6776 28.4961 24.1689 28.7068 23.7938 29.0819C23.4187 29.457 23.208 29.9657 23.208 30.4961C23.208 31.0265 23.4187 31.5352 23.7938 31.9103C24.1689 32.2854 24.6776 32.4961 25.208 32.4961H41.208C41.7384 32.4961 42.2472 32.2854 42.6222 31.9103C42.9973 31.5352 43.208 31.0265 43.208 30.4961C43.208 29.9657 42.9973 29.457 42.6222 29.0819C42.2472 28.7068 41.7384 28.4961 41.208 28.4961H25.208Z" fill="white" fill-opacity="0.8"/>
<path d="M7 8.5C6.46957 8.5 5.96086 8.71071 5.58579 9.08579C5.21071 9.46086 5 9.96957 5 10.5V20.5C5 21.0304 5.21071 21.5391 5.58579 21.9142C5.96086 22.2893 6.46957 22.5 7 22.5H17C17.5304 22.5 18.0391 22.2893 18.4142 21.9142C18.7893 21.5391 19 21.0304 19 20.5V10.5C19 9.96957 18.7893 9.46086 18.4142 9.08579C18.0391 8.71071 17.5304 8.5 17 8.5H7ZM7 26.492C6.46957 26.492 5.96086 26.7027 5.58579 27.0778C5.21071 27.4529 5 27.9616 5 28.492V38.492C5 39.0224 5.21071 39.5311 5.58579 39.9062C5.96086 40.2813 6.46957 40.492 7 40.492H17C17.5304 40.492 18.0391 40.2813 18.4142 39.9062C18.7893 39.5311 19 39.0224 19 38.492V28.492C19 27.9616 18.7893 27.4529 18.4142 27.0778C18.0391 26.7027 17.5304 26.492 17 26.492H7Z" fill="white"/>
<path d="M5 6.5L41 42.5" stroke="#EEEEEE" stroke-width="3" stroke-linecap="round"/>
</svg>
