<svg width="48" height="49" viewBox="0 0 48 49" fill="none" xmlns="http://www.w3.org/2000/svg">
<path d="M4 42.5C4 39.7162 4.72634 36.9805 6.10726 34.5633C7.48818 32.1461 9.47589 30.131 11.874 28.7171C14.2721 27.3033 16.9976 26.5396 19.7812 26.5015C22.5648 26.4634 25.3101 27.1523 27.746 28.5" stroke="white" stroke-width="4" stroke-linecap="round" stroke-linejoin="round"/>
<path d="M20 26.5C25.5228 26.5 30 22.0228 30 16.5C30 10.9772 25.5228 6.5 20 6.5C14.4772 6.5 10 10.9772 10 16.5C10 22.0228 14.4772 26.5 20 26.5Z" stroke="white" stroke-width="4" stroke-linecap="round" stroke-linejoin="round"/>
<path d="M34 34.5L44 44.5M44 34.5L34 44.5" stroke="white" stroke-width="4" stroke-linecap="round" stroke-linejoin="round"/>
</svg>
