<svg width="48" height="49" viewBox="0 0 48 49" fill="none" xmlns="http://www.w3.org/2000/svg">
<path d="M41.9037 6.59423C40.5612 5.25324 38.7413 4.5 36.8437 4.5C34.9462 4.5 33.1263 5.25324 31.7837 6.59423L7.87973 30.5002C7.06649 31.3129 6.49521 32.3356 6.22973 33.4542L4.03973 42.6542C3.98044 42.9035 3.986 43.1639 4.05588 43.4104C4.12577 43.6569 4.25765 43.8815 4.43895 44.0626C4.62025 44.2437 4.84492 44.3753 5.09154 44.4449C5.33816 44.5145 5.5985 44.5198 5.84773 44.4602L15.0497 42.2702C16.1686 42.0042 17.1913 41.4322 18.0037 40.6182L20.3057 38.3182C20.0158 37.0093 19.9302 35.6634 20.0517 34.3282L15.8817 38.4982C15.4617 38.9182 14.9337 39.2142 14.3557 39.3522L7.52373 40.9782L9.14973 34.1462C9.28773 33.5682 9.58373 33.0402 10.0037 32.6202L33.9037 8.71623C34.2898 8.33015 34.7482 8.02389 35.2526 7.81494C35.7571 7.60599 36.2977 7.49844 36.8437 7.49844C37.3897 7.49844 37.9304 7.60599 38.4348 7.81494C38.9393 8.02389 39.3976 8.33015 39.7837 8.71623C40.1698 9.10232 40.4761 9.56067 40.685 10.0651C40.894 10.5696 41.0015 11.1102 41.0015 11.6562C41.0015 12.2022 40.894 12.7429 40.685 13.2473C40.4761 13.7518 40.1698 14.2101 39.7837 14.5962L31.8257 22.5522C33.1603 22.434 34.505 22.5197 35.8137 22.8062L41.9037 16.7162C43.2447 15.3737 43.998 13.5538 43.998 11.6562C43.998 9.7587 43.2447 7.93876 41.9037 6.59623M43.9997 35.5002C43.9997 38.4176 42.8408 41.2155 40.7779 43.2784C38.715 45.3413 35.9171 46.5002 32.9997 46.5002C30.0824 46.5002 27.2845 45.3413 25.2216 43.2784C23.1587 41.2155 21.9997 38.4176 21.9997 35.5002C21.9997 32.5829 23.1587 29.785 25.2216 27.7221C27.2845 25.6592 30.0824 24.5002 32.9997 24.5002C35.9171 24.5002 38.715 25.6592 40.7779 27.7221C42.8408 29.785 43.9997 32.5829 43.9997 35.5002ZM29.7077 30.7922C29.52 30.6045 29.2653 30.499 28.9997 30.499C28.7342 30.499 28.4795 30.6045 28.2917 30.7922C28.104 30.98 27.9985 31.2347 27.9985 31.5002C27.9985 31.7658 28.104 32.0205 28.2917 32.2082L31.5857 35.5002L28.2917 38.7922C28.104 38.98 27.9985 39.2347 27.9985 39.5002C27.9985 39.7658 28.104 40.0205 28.2917 40.2082C28.4795 40.396 28.7342 40.5015 28.9997 40.5015C29.2653 40.5015 29.52 40.396 29.7077 40.2082L32.9997 36.9142L36.2917 40.2082C36.3847 40.3012 36.4951 40.375 36.6166 40.4253C36.738 40.4756 36.8682 40.5015 36.9997 40.5015C37.1312 40.5015 37.2614 40.4756 37.3829 40.4253C37.5044 40.375 37.6148 40.3012 37.7077 40.2082C37.8007 40.1153 37.8745 40.0049 37.9248 39.8834C37.9751 39.7619 38.001 39.6317 38.001 39.5002C38.001 39.3687 37.9751 39.2385 37.9248 39.1171C37.8745 38.9956 37.8007 38.8852 37.7077 38.7922L34.4137 35.5002L37.7077 32.2082C37.8955 32.0205 38.001 31.7658 38.001 31.5002C38.001 31.2347 37.8955 30.98 37.7077 30.7922C37.52 30.6045 37.2653 30.499 36.9997 30.499C36.7342 30.499 36.4795 30.6045 36.2917 30.7922L32.9997 34.0862L29.7077 30.7922Z" fill="white"/>
</svg>
