<svg width="48" height="48" viewBox="0 0 48 48" fill="none" xmlns="http://www.w3.org/2000/svg">
<path d="M24 40H42M32.752 7.24396C33.5481 6.44778 34.628 6.00049 35.754 6.00049C36.8799 6.00049 37.9598 6.44778 38.756 7.24396C39.5521 8.04014 39.9994 9.11999 39.9994 10.246C39.9994 11.3719 39.5521 12.4518 38.756 13.248L14.736 37.27C14.2601 37.7458 13.672 38.0938 13.026 38.282L7.28195 39.958C7.10986 40.0082 6.92743 40.0112 6.75377 39.9667C6.58011 39.9222 6.42161 39.8318 6.29485 39.7051C6.16809 39.5783 6.07773 39.4198 6.03324 39.2461C5.98875 39.0725 5.99176 38.8901 6.04195 38.718L7.71795 32.974C7.90639 32.3286 8.25445 31.7412 8.72995 31.266L32.752 7.24396Z" stroke="white" stroke-width="4" stroke-linecap="round" stroke-linejoin="round"/>
</svg>
