<svg width="48" height="49" viewBox="0 0 48 49" fill="none" xmlns="http://www.w3.org/2000/svg">
<path d="M31.42 25.92C33.3808 24.3773 34.812 22.2618 35.5145 19.8679C36.217 17.4739 36.1558 14.9205 35.3396 12.5629C34.5233 10.2053 32.9925 8.16079 30.9601 6.71372C28.9278 5.26664 26.4949 4.48901 24 4.48901C21.5051 4.48901 19.0722 5.26664 17.0399 6.71372C15.0075 8.16079 13.4767 10.2053 12.6604 12.5629C11.8442 14.9205 11.783 17.4739 12.4855 19.8679C13.188 22.2618 14.6192 24.3773 16.58 25.92C13.2201 27.2661 10.2886 29.4987 8.09778 32.3798C5.90699 35.261 4.53912 38.6826 4.13999 42.28C4.1111 42.5426 4.13423 42.8084 4.20804 43.0621C4.28186 43.3158 4.40493 43.5525 4.57022 43.7587C4.90403 44.175 5.38956 44.4417 5.91999 44.5C6.45043 44.5583 6.98231 44.4036 7.39864 44.0698C7.81497 43.736 8.08165 43.2504 8.13999 42.72C8.57916 38.8104 10.4434 35.1996 13.3764 32.5776C16.3095 29.9556 20.1058 28.5061 24.04 28.5061C27.9742 28.5061 31.7705 29.9556 34.7036 32.5776C37.6366 35.1996 39.5008 38.8104 39.94 42.72C39.9944 43.2114 40.2289 43.6653 40.5982 43.994C40.9675 44.3228 41.4456 44.503 41.94 44.5H42.16C42.6843 44.4397 43.1634 44.1746 43.4931 43.7625C43.8228 43.3504 43.9762 42.8247 43.92 42.3C43.519 38.6924 42.1437 35.262 39.9417 32.3764C37.7396 29.4908 34.7938 27.259 31.42 25.92ZM24 24.5C22.4177 24.5 20.871 24.0308 19.5554 23.1518C18.2398 22.2727 17.2145 21.0233 16.609 19.5615C16.0035 18.0997 15.845 16.4911 16.1537 14.9393C16.4624 13.3874 17.2243 11.962 18.3431 10.8432C19.462 9.72433 20.8874 8.96241 22.4393 8.65372C23.9911 8.34504 25.5997 8.50347 27.0615 9.10897C28.5233 9.71447 29.7727 10.7399 30.6518 12.0554C31.5308 13.371 32 14.9178 32 16.5C32 18.6217 31.1571 20.6566 29.6568 22.1569C28.1566 23.6572 26.1217 24.5 24 24.5Z" fill="white"/>
</svg>
