<svg width="11" height="10" viewBox="0 0 11 10" fill="none" xmlns="http://www.w3.org/2000/svg">
<g clip-path="url(#clip0_389_814)">
<path d="M6.3502 5.818L7.1834 5.818L7.1837 3.31749L4.68349 3.31749L4.68378 4.15099L5.76065 4.15129L3.54004 6.3719L4.12929 6.96115L6.3499 4.74054L6.3502 5.818Z" fill="white"/>
<path fill-rule="evenodd" clip-rule="evenodd" d="M10.0842 4.99988C10.0842 2.46844 8.03242 0.416648 5.50098 0.416648C2.96953 0.416648 0.917747 2.46844 0.917747 4.99988C0.917747 7.53132 2.96953 9.58311 5.50098 9.58311C8.03242 9.58311 10.0842 7.53132 10.0842 4.99988ZM9.251 4.99988C9.251 4.00531 8.85591 3.05148 8.15264 2.34821C7.44938 1.64495 6.49554 1.24986 5.50098 1.24986C4.50641 1.24986 3.55258 1.64495 2.84931 2.34821C2.14604 3.05148 1.75095 4.00531 1.75095 4.99988C1.75095 5.99445 2.14604 6.94828 2.84931 7.65154C3.55258 8.35481 4.50641 8.7499 5.50098 8.7499C6.49554 8.7499 7.44938 8.35481 8.15264 7.65154C8.85591 6.94828 9.251 5.99445 9.251 4.99988Z" fill="white"/>
</g>
<defs>
<clipPath id="clip0_389_814">
<rect width="10" height="10" fill="white" transform="translate(0.5)"/>
</clipPath>
</defs>
</svg>
