<svg width="17" height="16" viewBox="0 0 17 16" fill="none" xmlns="http://www.w3.org/2000/svg">
<g clip-path="url(#clip0_389_883)">
<path d="M14.3083 5.41874L14.1443 5.79607C14.1187 5.85751 14.0755 5.91 14.0201 5.94692C13.9647 5.98384 13.8996 6.00354 13.833 6.00354C13.7664 6.00354 13.7013 5.98384 13.6459 5.94692C13.5905 5.91 13.5473 5.85751 13.5217 5.79607L13.3577 5.41874C13.0693 4.75122 12.5413 4.21602 11.8777 3.91874L11.3717 3.69274C11.3103 3.6645 11.2583 3.61925 11.2218 3.56236C11.1854 3.50546 11.166 3.43931 11.166 3.37174C11.166 3.30417 11.1854 3.23801 11.2218 3.18112C11.2583 3.12422 11.3103 3.07897 11.3717 3.05074L11.8497 2.83807C12.5299 2.53232 13.067 1.97732 13.3503 1.2874L13.519 0.88007C13.5438 0.816972 13.587 0.762802 13.643 0.72462C13.699 0.686438 13.7652 0.666016 13.833 0.666016C13.9008 0.666016 13.967 0.686438 14.023 0.72462C14.079 0.762802 14.1222 0.816972 14.147 0.88007L14.3157 1.28674C14.5987 1.97679 15.1355 2.53202 15.8157 2.83807L16.2943 3.0514C16.3555 3.07972 16.4074 3.12496 16.4437 3.18179C16.48 3.23861 16.4993 3.30463 16.4993 3.37207C16.4993 3.43951 16.48 3.50553 16.4437 3.56235C16.4074 3.61917 16.3555 3.66442 16.2943 3.69274L15.7877 3.91807C15.1242 4.21565 14.5964 4.75109 14.3083 5.41874ZM13.833 7.3334C14.2871 7.33386 14.738 7.25699 15.1663 7.10607V13.3381C15.1651 13.5132 15.0951 13.6807 14.9713 13.8046C14.8476 13.9285 14.6801 13.9987 14.505 14.0001H2.49434C2.31888 13.9999 2.15067 13.9301 2.02667 13.8059C1.90266 13.6818 1.83301 13.5135 1.83301 13.3381V2.66207C1.83423 2.48699 1.90427 2.31941 2.02802 2.19555C2.15176 2.07168 2.31926 2.00147 2.49434 2.00007H10.061C9.84768 2.60346 9.78224 3.24922 9.8702 3.88313C9.95816 4.51705 10.1969 5.1206 10.5665 5.64312C10.936 6.16563 11.4256 6.59184 11.9939 6.88596C12.5623 7.18008 13.193 7.33353 13.833 7.3334ZM7.58101 5.61007C7.54089 5.5833 7.49425 5.56791 7.44608 5.56555C7.3979 5.56319 7.34999 5.57393 7.30744 5.59664C7.26489 5.61936 7.22929 5.65318 7.20445 5.69452C7.1796 5.73586 7.16643 5.78317 7.16634 5.8314V10.1687C7.16643 10.217 7.1796 10.2643 7.20445 10.3056C7.22929 10.347 7.26489 10.3808 7.30744 10.4035C7.34999 10.4262 7.3979 10.437 7.44608 10.4346C7.49425 10.4322 7.54089 10.4168 7.58101 10.3901L10.8337 8.22207C10.8703 8.19773 10.9002 8.16472 10.921 8.12599C10.9417 8.08726 10.9526 8.04401 10.9526 8.00007C10.9526 7.95613 10.9417 7.91288 10.921 7.87415C10.9002 7.83542 10.8703 7.80241 10.8337 7.77807L7.58101 5.61007Z" fill="black"/>
</g>
<defs>
<clipPath id="clip0_389_883">
<rect width="16" height="16" fill="white" transform="translate(0.5)"/>
</clipPath>
</defs>
</svg>
