<svg width="17" height="16" viewBox="0 0 17 16" fill="none" xmlns="http://www.w3.org/2000/svg">
<path d="M7.20313 2L6.0918 5.33333H10.0198L11.1311 2H7.20313Z" fill="black"/>
<path d="M5.79766 2L4.68633 5.33333H1.83366V6.66667H15.167V5.33333H11.425L12.5363 2H14.2337C14.4438 2 14.6518 2.04139 14.846 2.12179C15.0401 2.2022 15.2165 2.32006 15.365 2.46863C15.5136 2.6172 15.6315 2.79359 15.7119 2.98771C15.7923 3.18183 15.8337 3.38989 15.8337 3.6V12.4C15.8337 12.8243 15.6651 13.2313 15.365 13.5314C15.065 13.8314 14.658 14 14.2337 14H2.76699C2.34265 14 1.93568 13.8314 1.63562 13.5314C1.33556 13.2313 1.16699 12.8243 1.16699 12.4V3.6C1.16699 3.38989 1.20838 3.18183 1.28878 2.98771C1.36919 2.79359 1.48705 2.6172 1.63562 2.46863C1.93568 2.16857 2.34265 2 2.76699 2H5.79766Z" fill="black"/>
</svg>
