<svg width="16" height="16" viewBox="0 0 16 16" fill="none" xmlns="http://www.w3.org/2000/svg">
<path d="M3.99967 9.33325H6.04967L9.36634 5.99992C9.46634 5.89992 9.54145 5.78592 9.59167 5.65792C9.6419 5.52992 9.66679 5.40503 9.66634 5.28325C9.6659 5.16147 9.64101 5.04214 9.59167 4.92525C9.54234 4.80836 9.47279 4.69992 9.38301 4.59992L8.76634 3.96659C8.66634 3.86659 8.55523 3.7917 8.43301 3.74192C8.31079 3.69214 8.18301 3.66703 8.04967 3.66659C7.92745 3.66659 7.80523 3.6917 7.68301 3.74192C7.56079 3.79214 7.44967 3.86703 7.34967 3.96659L3.99967 7.28325V9.33325ZM8.03301 5.93325L7.39967 5.31659L8.04967 4.66659L8.66634 5.29992L8.03301 5.93325ZM7.46634 9.33325H11.9997V7.99992H8.79967L7.46634 9.33325ZM1.33301 14.6666V2.66659C1.33301 2.29992 1.46367 1.98614 1.72501 1.72525C1.98634 1.46436 2.30012 1.3337 2.66634 1.33325H13.333C13.6997 1.33325 14.0137 1.46392 14.275 1.72525C14.5363 1.98659 14.6668 2.30036 14.6663 2.66659V10.6666C14.6663 11.0333 14.5359 11.3473 14.275 11.6086C14.0141 11.8699 13.7001 12.0004 13.333 11.9999H3.99967L1.33301 14.6666Z" fill="black"/>
</svg>
