<svg width="16" height="16" viewBox="0 0 16 16" fill="none" xmlns="http://www.w3.org/2000/svg">
<path d="M8.00033 2.66675C8.70757 2.66675 9.38585 2.9477 9.88594 3.4478C10.386 3.94789 10.667 4.62617 10.667 5.33341C10.667 6.04066 10.386 6.71894 9.88594 7.21903C9.38585 7.71913 8.70757 8.00008 8.00033 8.00008C7.29308 8.00008 6.6148 7.71913 6.11471 7.21903C5.61461 6.71894 5.33366 6.04066 5.33366 5.33341C5.33366 4.62617 5.61461 3.94789 6.11471 3.4478C6.6148 2.9477 7.29308 2.66675 8.00033 2.66675ZM8.00033 9.33342C10.947 9.33342 13.3337 10.5267 13.3337 12.0001V13.3334H2.66699V12.0001C2.66699 10.5267 5.05366 9.33342 8.00033 9.33342Z" fill="black"/>
</svg>
